<svg width="57" height="57" viewBox="0 0 57 57" fill="none" xmlns="http://www.w3.org/2000/svg">
<path d="M48.0331 41.9169L31.0573 54.1012C30.3395 54.6189 29.4793 54.8972 28.597 54.8972C27.7147 54.8972 26.8545 54.6189 26.1367 54.1012L9.23637 41.9169C8.68852 41.5198 8.24218 40.9968 7.93423 40.3912C7.62628 39.7857 7.46555 39.1148 7.46533 38.4342V6.33347C7.46533 5.19928 7.9115 4.11148 8.70584 3.30902C9.50017 2.50655 10.5777 2.05506 11.7017 2.05371H45.5728C46.6964 2.0564 47.7732 2.50832 48.5672 3.3105C49.3613 4.11267 49.8079 5.1997 49.8092 6.33347V38.4342C49.8092 39.1154 49.6481 39.7868 49.3392 40.3926C49.0303 40.9983 48.5825 41.5209 48.0331 41.9169Z" fill="url(#paint0_linear_290_1401)"/>
<g opacity="0.2">
<path opacity="0.2" d="M46.7906 6.33328C46.7906 6.00609 46.6618 5.6923 46.4325 5.46094C46.2032 5.22958 45.8923 5.09961 45.568 5.09961H11.702C11.5417 5.09961 11.3829 5.13155 11.2349 5.19361C11.0868 5.25567 10.9524 5.34662 10.8392 5.46125C10.7261 5.57587 10.6365 5.71191 10.5756 5.86156C10.5147 6.0112 10.4837 6.17151 10.4844 6.33328V30.9914H46.7906V6.33328Z" fill="black"/>
</g>
<path d="M10.4843 30.9912V38.4389C10.4814 38.6364 10.5257 38.8318 10.6132 39.0084C10.7008 39.1851 10.8291 39.338 10.9874 39.4543L27.8827 51.6386C28.0903 51.7865 28.338 51.8662 28.5921 51.8671C28.8464 51.8676 29.0945 51.7877 29.3015 51.6386L46.2874 39.434C46.4463 39.3183 46.5751 39.1655 46.6627 38.9887C46.7503 38.8119 46.7942 38.6163 46.7905 38.4186V30.9912H10.4843Z" fill="#3A4ADB"/>
<path d="M43.6604 36.0152L43.5396 35.1115C43.4804 34.6576 43.2767 34.2355 42.9591 33.9086C42.6415 33.5817 42.2272 33.3678 41.7787 33.2991L41.2051 33.2128L41.7787 33.1214C42.2272 33.0527 42.6415 32.8387 42.9591 32.5119C43.2767 32.185 43.4804 31.7628 43.5396 31.3089L43.6604 30.4053L43.7761 31.3089C43.8353 31.7628 44.0391 32.185 44.3567 32.5119C44.6743 32.8387 45.0885 33.0527 45.5371 33.1214L46.1157 33.2128L45.5371 33.2991C45.0885 33.3678 44.6743 33.5817 44.3567 33.9086C44.0391 34.2355 43.8353 34.6576 43.7761 35.1115L43.6604 36.0152Z" fill="#FFCE51"/>
<path d="M35.9273 12.662L35.8719 12.5046C35.7675 12.1942 35.5979 11.9101 35.3747 11.6718C35.1516 11.4335 34.8801 11.2465 34.5789 11.1237C34.8801 11.0009 35.1516 10.814 35.3747 10.5757C35.5979 10.3374 35.7675 10.0533 35.8719 9.74283L35.9273 9.58545L35.9826 9.74283C36.087 10.0533 36.2566 10.3374 36.4798 10.5757C36.7029 10.814 36.9744 11.0009 37.2757 11.1237C36.9744 11.2465 36.7029 11.4335 36.4798 11.6718C36.2566 11.9101 36.087 12.1942 35.9826 12.5046L35.9273 12.662Z" fill="#FFCE51"/>
<path opacity="0.3" d="M44.5159 26.8614C44.9327 26.8614 45.2706 26.5205 45.2706 26.0999C45.2706 25.6793 44.9327 25.3384 44.5159 25.3384C44.0991 25.3384 43.7612 25.6793 43.7612 26.0999C43.7612 26.5205 44.0991 26.8614 44.5159 26.8614Z" fill="white"/>
<path opacity="0.3" d="M34.4227 43.4073C34.8395 43.4073 35.1774 43.0664 35.1774 42.6458C35.1774 42.2252 34.8395 41.8843 34.4227 41.8843C34.0059 41.8843 33.668 42.2252 33.668 42.6458C33.668 43.0664 34.0059 43.4073 34.4227 43.4073Z" fill="white"/>
<path d="M38.7549 16.0687L41.819 10.2202" stroke="white" stroke-width="0.796045" stroke-miterlimit="10"/>
<path d="M41.1296 18.8964L45.1849 16.4189" stroke="white" stroke-width="0.796045" stroke-miterlimit="10"/>
<path d="M42.0754 22.2219L46.2515 21.7446" stroke="white" stroke-width="0.796045" stroke-miterlimit="10"/>
<path d="M21.5785 12.3421L21.4829 11.5958C21.4299 11.226 21.2604 10.8832 20.9995 10.6181C20.7385 10.353 20.4 10.1796 20.0339 10.1235L19.5308 10.0524L20.0339 9.97628C20.4022 9.9194 20.7424 9.74377 21.0035 9.47566C21.2647 9.20754 21.4329 8.86133 21.4829 8.48877L21.5785 7.74756L21.6741 8.48877C21.7234 8.86164 21.8913 9.20828 22.1526 9.47654C22.4139 9.74481 22.7545 9.92018 23.1231 9.97628L23.5961 10.0524L23.1231 10.1235C22.7545 10.1796 22.4139 10.355 22.1526 10.6232C21.8913 10.8915 21.7234 11.2382 21.6741 11.611L21.5785 12.3421Z" fill="#FFCE51"/>
<path d="M28.5014 47.3772L28.436 47.1843C28.3047 46.7982 28.0931 46.4449 27.8154 46.1481C27.5377 45.8513 27.2004 45.6178 26.8259 45.4633C27.2 45.3096 27.5372 45.077 27.8149 44.781C28.0926 44.4851 28.3044 44.1326 28.436 43.7473L28.5014 43.5493L28.5668 43.7473C28.6984 44.1326 28.9101 44.4851 29.1878 44.781C29.4655 45.077 29.8027 45.3096 30.1768 45.4633C29.8024 45.6178 29.465 45.8513 29.1873 46.1481C28.9096 46.4449 28.6981 46.7982 28.5668 47.1843L28.5014 47.3772Z" fill="white"/>
<path d="M13.8559 36.0151L13.7905 35.8171C13.6606 35.4302 13.4496 35.0762 13.1717 34.7792C12.8939 34.4822 12.5557 34.2492 12.1804 34.0961C12.5556 33.9442 12.8937 33.7121 13.1716 33.4159C13.4495 33.1197 13.6606 32.7664 13.7905 32.3801L13.8559 32.1821L13.9263 32.3801C14.0561 32.7664 14.2673 33.1197 14.5452 33.4159C14.8231 33.7121 15.1612 33.9442 15.5363 34.0961C15.1593 34.2462 14.8188 34.4769 14.5383 34.7722C14.2578 35.0675 14.0439 35.4205 13.9112 35.807L13.8559 36.0151Z" fill="#FFCE51"/>
<path opacity="0.3" d="M12.2803 27.3692C12.6971 27.3692 13.035 27.0283 13.035 26.6077C13.035 26.1871 12.6971 25.8462 12.2803 25.8462C11.8635 25.8462 11.5256 26.1871 11.5256 26.6077C11.5256 27.0283 11.8635 27.3692 12.2803 27.3692Z" fill="white"/>
<path opacity="0.3" d="M22.9464 43.4068C23.3632 43.4068 23.7011 43.0659 23.7011 42.6453C23.7011 42.2247 23.3632 41.8838 22.9464 41.8838C22.5295 41.8838 22.1917 42.2247 22.1917 42.6453C22.1917 43.0659 22.5295 43.4068 22.9464 43.4068Z" fill="white"/>
<path d="M28.5116 39.9348C32.902 39.9348 36.4611 39.3643 36.4611 38.6605C36.4611 37.9567 32.902 37.3862 28.5116 37.3862C24.1211 37.3862 20.562 37.9567 20.562 38.6605C20.562 39.3643 24.1211 39.9348 28.5116 39.9348Z" fill="black"/>
<path d="M28.5116 38.6654C35.2 38.6654 40.6221 33.1943 40.6221 26.4455C40.6221 19.6966 35.2 14.2256 28.5116 14.2256C21.8232 14.2256 16.4011 19.6966 16.4011 26.4455C16.4011 33.1943 21.8232 38.6654 28.5116 38.6654Z" fill="url(#paint1_linear_290_1401)"/>
<path d="M28.5115 36.4264C33.9745 36.4264 38.4032 31.9577 38.4032 26.4454C38.4032 20.933 33.9745 16.4644 28.5115 16.4644C23.0485 16.4644 18.6199 20.933 18.6199 26.4454C18.6199 31.9577 23.0485 36.4264 28.5115 36.4264Z" stroke="white" stroke-width="1.2225" stroke-miterlimit="10"/>
<path d="M28.5014 16.4644C30.7925 16.4618 33.0136 17.261 34.7861 18.7258C36.5586 20.1906 37.7729 22.2302 38.2219 24.4972C38.671 26.7642 38.3271 29.1181 37.2488 31.1579C36.1705 33.1976 34.4245 34.7969 32.3085 35.6833C30.1925 36.5696 27.8373 36.688 25.6444 36.0185C23.4515 35.3489 21.5566 33.9327 20.2826 32.0113C19.0086 30.0898 18.4344 27.7821 18.6578 25.4813C18.8812 23.1805 19.8884 21.0291 21.5078 19.3937" stroke="black" stroke-width="1.2225" stroke-miterlimit="10"/>
<path d="M23.9277 28.2882C24.1119 28.2395 24.2835 28.1512 24.4308 28.0293C24.5629 27.9206 24.6695 27.7836 24.7427 27.6283C24.8171 27.4677 24.8663 27.2964 24.8887 27.1206C24.8375 27.1762 24.7801 27.2256 24.7176 27.2678C24.6534 27.313 24.5841 27.3505 24.5113 27.3795C24.4237 27.4183 24.3328 27.4489 24.2396 27.4709C24.1302 27.492 24.019 27.5022 23.9075 27.5013C23.6765 27.5075 23.4473 27.4588 23.2384 27.3592C23.0428 27.2724 22.8704 27.1402 22.7352 26.9734C22.6056 26.7923 22.5132 26.5869 22.4635 26.3692C22.3932 26.1374 22.3593 25.8958 22.3629 25.6534C22.3525 25.3972 22.3865 25.1412 22.4635 24.8969C22.5414 24.6735 22.6629 24.4681 22.8208 24.2928C22.9758 24.1171 23.1662 23.9769 23.3793 23.8816C23.6128 23.7807 23.8648 23.7305 24.1189 23.7343C24.3713 23.7258 24.6224 23.7758 24.8527 23.8805C25.0829 23.9852 25.2863 24.1419 25.4471 24.3385C25.6078 24.5472 25.7273 24.785 25.7993 25.0391C25.8865 25.3252 25.929 25.6232 25.9251 25.9225V26.2778C25.9272 26.6775 25.8747 27.0755 25.7691 27.4607C25.6667 27.8036 25.4955 28.1216 25.266 28.3949C25.0372 28.6629 24.7495 28.8733 24.4258 29.0092C24.039 29.1656 23.6248 29.2416 23.2082 29.2325H23.1277V28.3999H23.1981C23.4454 28.3991 23.6913 28.3615 23.9277 28.2882ZM24.4308 26.6129C24.5108 26.5874 24.5858 26.5479 24.6522 26.4961C24.716 26.4495 24.772 26.3929 24.8182 26.3286C24.8646 26.2621 24.9034 26.1906 24.9339 26.1154V25.7498C24.9359 25.5787 24.9156 25.408 24.8736 25.2422C24.8397 25.1099 24.7836 24.9845 24.7075 24.8715C24.6415 24.7789 24.5554 24.7025 24.456 24.6482C24.3603 24.6014 24.2554 24.5771 24.149 24.5771C24.0357 24.5737 23.9238 24.6037 23.827 24.6634C23.7307 24.7209 23.6496 24.801 23.5906 24.8969C23.524 24.9998 23.4747 25.113 23.4447 25.232C23.4097 25.3627 23.3928 25.4977 23.3943 25.6331C23.3939 25.7664 23.4091 25.8993 23.4396 26.0291C23.4707 26.1461 23.5199 26.2575 23.5855 26.3591C23.65 26.4513 23.7343 26.5276 23.8321 26.5824C23.937 26.6396 24.0551 26.6676 24.1742 26.6637C24.2534 26.6584 24.3314 26.6412 24.4056 26.6129H24.4308Z" fill="black"/>
<path d="M30.1566 28.0653C30.087 28.3075 29.9708 28.5335 29.8145 28.7304C29.6675 28.9091 29.4791 29.0486 29.2661 29.1365C28.7998 29.3181 28.2833 29.3181 27.8171 29.1365C27.604 29.0486 27.4157 28.9091 27.2686 28.7304C27.1089 28.5351 26.9907 28.3087 26.9215 28.0653C26.8323 27.7675 26.7898 27.4575 26.7957 27.1464V25.862C26.7908 25.5514 26.8315 25.2417 26.9165 24.9431C26.9867 24.6986 27.1048 24.4707 27.2636 24.2729C27.4122 24.0971 27.6002 23.9596 27.812 23.8719C28.2763 23.6892 28.7917 23.6892 29.256 23.8719C29.4693 23.9596 29.6589 24.0971 29.8095 24.2729C29.9648 24.4723 30.0809 24.6998 30.1516 24.9431C30.2366 25.2417 30.2773 25.5514 30.2724 25.862V27.1515C30.2783 27.4602 30.2393 27.7681 30.1566 28.0653ZM29.246 25.6335C29.243 25.4627 29.2228 25.2926 29.1856 25.1258C29.1545 24.9995 29.0961 24.8816 29.0145 24.7806C28.9599 24.7128 28.8888 24.6603 28.8082 24.6283C28.7204 24.5925 28.6262 24.5753 28.5315 24.5776C28.427 24.5741 28.3233 24.5968 28.2296 24.6436C28.1334 24.6853 28.0525 24.7563 27.9982 24.8466C27.9269 24.9537 27.8789 25.0748 27.8573 25.202C27.8214 25.3687 27.8045 25.5391 27.807 25.7097V26.725L29.246 25.6335ZM29.246 26.6743V26.3341L27.8221 27.385C27.8268 27.53 27.8437 27.6744 27.8724 27.8166C27.8968 27.927 27.9375 28.0331 27.9932 28.1313C28.0439 28.2259 28.1208 28.3035 28.2145 28.3547C28.3154 28.4077 28.4279 28.4339 28.5416 28.4309C28.646 28.4337 28.7496 28.4111 28.8435 28.3649C28.9352 28.3227 29.0124 28.2538 29.0648 28.1669C29.1325 28.0566 29.1786 27.9342 29.2007 27.8064C29.2323 27.6391 29.2475 27.469 29.246 27.2987V26.6743Z" fill="black"/>
<path d="M30.7553 24.364C30.7948 24.2418 30.862 24.1305 30.9515 24.0391C31.0405 23.9395 31.1506 23.8614 31.2735 23.8106C31.5711 23.7025 31.8967 23.7025 32.1943 23.8106C32.3122 23.8616 32.418 23.9373 32.5048 24.0327C32.5915 24.1281 32.6572 24.241 32.6974 24.364C32.7423 24.4945 32.7644 24.6319 32.7628 24.7701V25.0544C32.7649 25.1893 32.7427 25.3235 32.6974 25.4504C32.6579 25.573 32.5927 25.6855 32.5062 25.7804C32.4183 25.88 32.3078 25.9566 32.1842 26.0038C32.0386 26.0617 31.8828 26.0893 31.7264 26.085C31.5682 26.0893 31.4109 26.0617 31.2635 26.0038C31.1399 25.9566 31.0294 25.88 30.9415 25.7804C30.852 25.686 30.7834 25.5735 30.7402 25.4504C30.6973 25.3229 30.6752 25.1891 30.6748 25.0544V24.7701C30.6781 24.6311 30.7053 24.4936 30.7553 24.364ZM31.3993 25.2169C31.4101 25.2678 31.4306 25.316 31.4597 25.359C31.4877 25.4003 31.5258 25.4335 31.5704 25.4555C31.6236 25.4814 31.6824 25.4936 31.7415 25.491C31.7989 25.4937 31.8561 25.4814 31.9075 25.4555C31.956 25.4352 31.9966 25.3996 32.0232 25.354C32.0542 25.3121 32.0749 25.2633 32.0836 25.2118C32.0888 25.1578 32.0888 25.1034 32.0836 25.0493V24.765C32.0885 24.7093 32.0885 24.6532 32.0836 24.5975C32.073 24.5465 32.0525 24.4982 32.0232 24.4554C31.9947 24.4158 31.9566 24.3843 31.9125 24.364C31.8594 24.3376 31.8005 24.3254 31.7415 24.3284C31.684 24.3258 31.6269 24.338 31.5754 24.364C31.5347 24.3873 31.4988 24.4183 31.4698 24.4554C31.4426 24.4994 31.4222 24.5473 31.4094 24.5975C31.402 24.6531 31.402 24.7095 31.4094 24.765V25.0493C31.3978 25.1044 31.3944 25.1608 31.3993 25.2169ZM31.5855 28.2224L33.6433 24.4198L34.1464 24.6584L32.0886 28.466L31.5855 28.2224ZM32.9138 27.5471C32.9577 27.4255 33.0243 27.3135 33.11 27.2171C33.2012 27.1191 33.3129 27.0427 33.437 26.9938C33.5827 26.9359 33.7384 26.9082 33.8949 26.9125C34.053 26.9082 34.2104 26.9359 34.3578 26.9938C34.4819 27.0427 34.5936 27.1191 34.6848 27.2171C34.7687 27.3139 34.8335 27.4259 34.876 27.5471C34.9168 27.6768 34.9372 27.8122 34.9364 27.9482V28.2376C34.9372 28.3736 34.9168 28.509 34.876 28.6387C34.8385 28.7624 34.7738 28.876 34.6867 28.971C34.5995 29.0659 34.4923 29.1398 34.3728 29.187C34.2273 29.2453 34.0715 29.2729 33.915 29.2682C33.7569 29.2719 33.5996 29.2443 33.4521 29.187C33.3283 29.1398 33.2165 29.0652 33.1251 28.9686C33.0388 28.8727 32.9721 28.7606 32.9289 28.6387C32.884 28.5099 32.8618 28.3741 32.8634 28.2376V27.9482C32.857 27.8126 32.874 27.6769 32.9138 27.5471ZM33.5578 28.4C33.572 28.4516 33.5959 28.4998 33.6282 28.5422C33.6581 28.5837 33.6979 28.6168 33.7439 28.6387C33.7917 28.6647 33.8457 28.677 33.8999 28.6742C33.9638 28.6771 34.0276 28.6649 34.0861 28.6387C34.1301 28.618 34.1669 28.5843 34.1917 28.5422C34.2179 28.4992 34.2334 28.4504 34.237 28.4C34.2423 28.3443 34.2423 28.2882 34.237 28.2325V27.9431C34.2422 27.8891 34.2422 27.8347 34.237 27.7807C34.2242 27.7305 34.2038 27.6825 34.1766 27.6385C34.1455 27.6016 34.108 27.5706 34.0659 27.5471C34.0145 27.5212 33.9573 27.509 33.8999 27.5116C33.8408 27.509 33.7821 27.5212 33.7288 27.5471C33.6868 27.5706 33.6493 27.6016 33.6181 27.6385C33.5927 27.6828 33.574 27.7307 33.5628 27.7807C33.5551 27.8345 33.5551 27.8893 33.5628 27.9431V28.2325C33.5529 28.2878 33.5512 28.3443 33.5578 28.4Z" fill="black"/>
<path d="M18.2477 16.0687L15.1836 10.2202" stroke="white" stroke-width="0.796045" stroke-miterlimit="10"/>
<path d="M15.8724 18.8964L11.8171 16.4189" stroke="white" stroke-width="0.796045" stroke-miterlimit="10"/>
<path d="M14.9268 22.2219L10.7507 21.7446" stroke="white" stroke-width="0.796045" stroke-miterlimit="10"/>
<path d="M28.5818 12.327L28.4258 11.139C28.3467 10.5391 28.0769 9.98121 27.6568 9.54915C27.2368 9.11708 26.6892 8.83413 26.0963 8.74276L25.3315 8.60061L26.0963 8.48384C26.6892 8.39247 27.2368 8.10952 27.6568 7.67746C28.0769 7.24539 28.3467 6.68753 28.4258 6.08758L28.5818 4.89453L28.7378 6.08758C28.8153 6.68815 29.0846 7.24689 29.5049 7.67924C29.9253 8.1116 30.4737 8.39404 31.0673 8.48384L31.827 8.60061L31.0673 8.71737C30.47 8.80846 29.9187 9.09461 29.498 9.53199C29.0773 9.96938 28.8102 10.5339 28.7378 11.139L28.5818 12.327Z" fill="white"/>
<defs>
<linearGradient id="paint0_linear_290_1401" x1="28.6373" y1="54.8932" x2="28.6373" y2="2.05371" gradientUnits="userSpaceOnUse">
<stop stop-color="#367CFA"/>
<stop offset="1" stop-color="#2F91FB"/>
</linearGradient>
<linearGradient id="paint1_linear_290_1401" x1="28.5116" y1="38.6654" x2="28.5116" y2="14.2256" gradientUnits="userSpaceOnUse">
<stop stop-color="#7FDD53"/>
<stop offset="1" stop-color="#2FEA9B"/>
</linearGradient>
</defs>
</svg>
