<svg width="57" height="58" viewBox="0 0 57 58" fill="none" xmlns="http://www.w3.org/2000/svg">
<path d="M48.0331 42.4105L31.0573 54.5949C30.3395 55.1125 29.4793 55.3908 28.597 55.3908C27.7147 55.3908 26.8545 55.1125 26.1367 54.5949L9.23637 42.4105C8.68852 42.0134 8.24218 41.4905 7.93423 40.8849C7.62628 40.2793 7.46555 39.6085 7.46533 38.9278V6.82712C7.46533 5.69294 7.9115 4.60513 8.70584 3.80267C9.50017 3.0002 10.5777 2.54871 11.7017 2.54736H45.5728C46.6964 2.55005 47.7732 3.00197 48.5672 3.80415C49.3613 4.60632 49.8079 5.69335 49.8092 6.82712V38.9278C49.8092 39.6091 49.6481 40.2805 49.3392 40.8862C49.0303 41.492 48.5825 42.0146 48.0331 42.4105V42.4105Z" fill="url(#paint0_linear_290_1351)"/>
<g opacity="0.2">
<path opacity="0.2" d="M46.7906 6.82693C46.7906 6.49974 46.6618 6.18595 46.4325 5.95459C46.2032 5.72324 45.8923 5.59326 45.568 5.59326H11.702C11.5417 5.59326 11.3829 5.62521 11.2349 5.68727C11.0868 5.74933 10.9524 5.84028 10.8392 5.9549C10.7261 6.06952 10.6365 6.20556 10.5756 6.35521C10.5147 6.50485 10.4837 6.66516 10.4844 6.82693V31.485H46.7906V6.82693Z" fill="black"/>
</g>
<path opacity="0.35" d="M10.4843 31.4849V38.9326C10.4814 39.1301 10.5257 39.3254 10.6132 39.5021C10.7008 39.6788 10.8291 39.8317 10.9874 39.9479L27.8827 52.1323C28.0903 52.2801 28.338 52.3599 28.5921 52.3607C28.8464 52.3612 29.0945 52.2813 29.3015 52.1323L46.2874 39.9276C46.4463 39.812 46.5751 39.6592 46.6627 39.4824C46.7503 39.3055 46.7942 39.1099 46.7905 38.9122V31.4849H10.4843Z" fill="black"/>
<path d="M28.5822 37.3015C34.0127 37.3015 38.4149 36.6883 38.4149 35.932C38.4149 35.1756 34.0127 34.5625 28.5822 34.5625C23.1518 34.5625 18.7495 35.1756 18.7495 35.932C18.7495 36.6883 23.1518 37.3015 28.5822 37.3015Z" fill="black"/>
<path d="M24.794 31.3975L22.1123 35.1046" stroke="#FFCE51" stroke-width="2.31696" stroke-miterlimit="10" stroke-linecap="round"/>
<path d="M32.4126 31.3975L35.0942 35.1046" stroke="#FFCE51" stroke-width="2.31696" stroke-miterlimit="10" stroke-linecap="round"/>
<path d="M15.3951 34.1408L15.3295 33.9505C15.2044 33.5783 15.0011 33.2378 14.7336 32.9522C14.4661 32.6666 14.1407 32.4426 13.7795 32.2955C14.1401 32.1475 14.4651 31.9232 14.7324 31.6377C14.9998 31.3522 15.2034 31.0121 15.3295 30.6405L15.3951 30.4502L15.4566 30.6405C15.5836 31.0123 15.788 31.3523 16.056 31.6378C16.3241 31.9232 16.6496 32.1475 17.0106 32.2955C16.6489 32.4423 16.3228 32.6662 16.0546 32.9518C15.7864 33.2374 15.5824 33.578 15.4566 33.9505L15.3951 34.1408Z" fill="white"/>
<path d="M21.0994 13.0477L21.0584 12.9277C20.9791 12.6936 20.851 12.4793 20.6826 12.2995C20.5143 12.1196 20.3096 11.9783 20.0825 11.885C20.3095 11.7927 20.5141 11.6522 20.6825 11.473C20.8509 11.2938 20.9791 11.0802 21.0584 10.8465L21.0994 10.7266L21.1404 10.8465C21.219 11.0805 21.347 11.2946 21.5154 11.4739C21.6839 11.6531 21.8889 11.7934 22.1163 11.885C21.8888 11.9776 21.6838 12.1187 21.5153 12.2986C21.3469 12.4786 21.219 12.6932 21.1404 12.9277L21.0994 13.0477Z" fill="white"/>
<path d="M35.1802 13.0477L35.1392 12.9277C35.0599 12.6936 34.9318 12.4793 34.7634 12.2995C34.5951 12.1196 34.3904 11.9783 34.1633 11.885C34.3911 11.7932 34.5965 11.6529 34.7656 11.4737C34.9347 11.2945 35.0636 11.0806 35.1433 10.8465L35.1843 10.7266L35.2253 10.8465C35.3046 11.0802 35.4328 11.2938 35.6012 11.473C35.7696 11.6522 35.9742 11.7927 36.2012 11.885C35.9741 11.9783 35.7695 12.1196 35.6011 12.2995C35.4328 12.4793 35.3046 12.6936 35.2253 12.9277L35.1802 13.0477Z" fill="white"/>
<path d="M40.2682 17.4502L40.1944 17.2392C40.0538 16.8222 39.8257 16.4408 39.5256 16.1209C39.2256 15.801 38.8607 15.5502 38.4558 15.3856C38.8605 15.2196 39.2252 14.9679 39.5251 14.6474C39.8251 14.3269 40.0533 13.9451 40.1944 13.5279L40.2682 13.3169L40.3379 13.5279C40.479 13.9451 40.7072 14.3269 41.0071 14.6474C41.3071 14.9679 41.6717 15.2196 42.0764 15.3856C41.6716 15.5502 41.3067 15.801 41.0066 16.1209C40.7066 16.4408 40.4785 16.8222 40.3379 17.2392L40.2682 17.4502Z" fill="#FFCE51"/>
<path d="M29.6935 43.3048L29.6279 43.1145C29.4988 42.7419 29.2923 42.4015 29.0221 42.1161C28.752 41.8306 28.4245 41.6068 28.0615 41.4596C28.4245 41.3123 28.752 41.0885 29.0221 40.803C29.2923 40.5176 29.4988 40.1772 29.6279 39.8046L29.6935 39.6143L29.7591 39.8046C29.8874 40.1776 30.0937 40.5184 30.3639 40.8039C30.6342 41.0894 30.9621 41.313 31.3254 41.4596C30.9621 41.6061 30.6342 41.8297 30.3639 42.1152C30.0937 42.4007 29.8874 42.7415 29.7591 43.1145L29.6935 43.3048Z" fill="#FFCE51"/>
<path d="M16.1747 19.8338L16.0968 19.6104C15.9489 19.1714 15.709 18.7698 15.3934 18.4328C15.0779 18.0958 14.694 17.8314 14.2681 17.6575C14.6935 17.4839 15.0769 17.22 15.3924 16.8838C15.708 16.5476 15.9482 16.1468 16.0968 15.7088L16.1747 15.4854L16.2486 15.7088C16.3986 16.1467 16.6398 16.5472 16.9559 16.8833C17.2721 17.2194 17.6558 17.4834 18.0814 17.6575C17.6553 17.8318 17.2711 18.0963 16.9549 18.4332C16.6388 18.7701 16.3979 19.1715 16.2486 19.6104L16.1747 19.8338Z" fill="#FFCE51"/>
<path d="M41.3958 34.5172L41.3466 34.3807C41.2563 34.1095 41.1088 33.8614 40.9141 33.6535C40.7194 33.4456 40.4822 33.2829 40.219 33.1767C40.4815 33.0693 40.718 32.9062 40.9126 32.6984C41.1071 32.4907 41.2551 32.2432 41.3466 31.9727L41.3958 31.832L41.4409 31.9727C41.5331 32.2428 41.6814 32.49 41.8758 32.6976C42.0703 32.9052 42.3065 33.0686 42.5685 33.1767C42.3058 33.2837 42.069 33.4466 41.8744 33.6544C41.6798 33.8622 41.5319 34.1099 41.4409 34.3807L41.3958 34.5172Z" fill="white"/>
<path opacity="0.3" d="M13.616 25.9361C13.9557 25.9361 14.2311 25.6582 14.2311 25.3154C14.2311 24.9727 13.9557 24.6948 13.616 24.6948C13.2763 24.6948 13.001 24.9727 13.001 25.3154C13.001 25.6582 13.2763 25.9361 13.616 25.9361Z" fill="white"/>
<path opacity="0.3" d="M23.0467 41.2442C23.3864 41.2442 23.6618 40.9663 23.6618 40.6235C23.6618 40.2808 23.3864 40.0029 23.0467 40.0029C22.707 40.0029 22.4316 40.2808 22.4316 40.6235C22.4316 40.9663 22.707 41.2442 23.0467 41.2442Z" fill="white"/>
<path opacity="0.3" d="M27.9632 11.4551C28.3029 11.4551 28.5783 11.1772 28.5783 10.8345C28.5783 10.4917 28.3029 10.2139 27.9632 10.2139C27.6235 10.2139 27.3481 10.4917 27.3481 10.8345C27.3481 11.1772 27.6235 11.4551 27.9632 11.4551Z" fill="white"/>
<path opacity="0.3" d="M36.1683 40.417C36.508 40.417 36.7833 40.1392 36.7833 39.7964C36.7833 39.4536 36.508 39.1758 36.1683 39.1758C35.8286 39.1758 35.5532 39.4536 35.5532 39.7964C35.5532 40.1392 35.8286 40.417 36.1683 40.417Z" fill="white"/>
<path d="M28.6028 35.0218C34.3752 35.0218 39.0546 30.3001 39.0546 24.4755C39.0546 18.6509 34.3752 13.9292 28.6028 13.9292C22.8303 13.9292 18.1509 18.6509 18.1509 24.4755C18.1509 30.3001 22.8303 35.0218 28.6028 35.0218Z" fill="url(#paint1_linear_290_1351)"/>
<path d="M28.6026 32.1254C32.7898 32.1254 36.1842 28.7004 36.1842 24.4753C36.1842 20.2503 32.7898 16.8252 28.6026 16.8252C24.4154 16.8252 21.021 20.2503 21.021 24.4753C21.021 28.7004 24.4154 32.1254 28.6026 32.1254Z" stroke="white" stroke-width="1.73772" stroke-miterlimit="10"/>
<path d="M28.6029 28.8859C31.017 28.8859 32.9739 26.9113 32.9739 24.4754C32.9739 22.0396 31.017 20.0649 28.6029 20.0649C26.1889 20.0649 24.2319 22.0396 24.2319 24.4754C24.2319 26.9113 26.1889 28.8859 28.6029 28.8859Z" stroke="white" stroke-width="1.73772" stroke-miterlimit="10"/>
<path d="M28.6032 25.9774C29.4252 25.9774 30.0916 25.305 30.0916 24.4755C30.0916 23.6461 29.4252 22.9736 28.6032 22.9736C27.7811 22.9736 27.1147 23.6461 27.1147 24.4755C27.1147 25.305 27.7811 25.9774 28.6032 25.9774Z" fill="white"/>
<path d="M47.0583 20.8472H40.9036L38.7837 24.124H44.9425L47.0583 20.8472Z" fill="white"/>
<path d="M47.0583 28.1079H40.9036L38.7837 24.8311H44.9425L47.0583 28.1079Z" fill="white"/>
<path d="M28.603 24.4756H45.3449" stroke="black" stroke-width="1.73772" stroke-miterlimit="10" stroke-linecap="round"/>
<path opacity="0.15" d="M28.603 24.4756L36.7136 31.1244" stroke="black" stroke-width="1.73772" stroke-miterlimit="10"/>
<defs>
<linearGradient id="paint0_linear_290_1351" x1="28.6373" y1="55.3869" x2="28.6373" y2="2.54736" gradientUnits="userSpaceOnUse">
<stop stop-color="#7E4FFE"/>
<stop offset="1" stop-color="#3B73FF"/>
</linearGradient>
<linearGradient id="paint1_linear_290_1351" x1="28.6028" y1="35.0218" x2="28.6028" y2="13.9292" gradientUnits="userSpaceOnUse">
<stop offset="0.01" stop-color="#FF3E13"/>
<stop offset="1" stop-color="#FF6B00"/>
</linearGradient>
</defs>
</svg>
