<svg width="57" height="58" viewBox="0 0 57 58" fill="none" xmlns="http://www.w3.org/2000/svg">
<path d="M48.0331 42.381L31.0573 54.5653C30.3395 55.083 29.4793 55.3613 28.597 55.3613C27.7147 55.3613 26.8545 55.083 26.1367 54.5653L9.23637 42.381C8.68852 41.9839 8.24218 41.4609 7.93423 40.8553C7.62628 40.2498 7.46555 39.5789 7.46533 38.8983V6.79758C7.46533 5.6634 7.9115 4.57559 8.70584 3.77313C9.50017 2.97066 10.5777 2.51917 11.7017 2.51782H45.5728C46.6964 2.52051 47.7732 2.97243 48.5672 3.77461C49.3613 4.57678 49.8079 5.66381 49.8092 6.79758V38.8983C49.8092 39.5795 49.6481 40.2509 49.3392 40.8567C49.0303 41.4624 48.5825 41.985 48.0331 42.381Z" fill="url(#paint0_linear_290_1303)"/>
<g opacity="0.3">
<path opacity="0.2" d="M46.7906 6.79763C46.7906 6.47044 46.6618 6.15665 46.4325 5.9253C46.2032 5.69394 45.8923 5.56396 45.568 5.56396H11.702C11.5417 5.56396 11.3829 5.59591 11.2349 5.65797C11.0868 5.72003 10.9524 5.81098 10.8392 5.9256C10.7261 6.04023 10.6365 6.17627 10.5756 6.32591C10.5147 6.47556 10.4837 6.63586 10.4844 6.79763V31.4557H46.7906V6.79763Z" fill="black"/>
</g>
<path opacity="0.35" d="M10.4843 31.4556V38.9033C10.4814 39.1008 10.5257 39.2961 10.6132 39.4728C10.7008 39.6495 10.8291 39.8024 10.9874 39.9186L27.8827 52.103C28.0903 52.2508 28.338 52.3306 28.5921 52.3314C28.8464 52.3319 29.0945 52.252 29.3015 52.103L46.2874 39.8983C46.4463 39.7827 46.5751 39.6299 46.6627 39.4531C46.7503 39.2762 46.7942 39.0806 46.7905 38.8829V31.4556H10.4843Z" fill="black"/>
<path d="M29.9531 44.1981L29.8927 44.0204C29.7742 43.677 29.5839 43.3633 29.3348 43.1005C29.0857 42.8377 28.7835 42.632 28.4487 42.4974C28.7835 42.3627 29.0857 42.157 29.3348 41.8942C29.5839 41.6315 29.7742 41.3177 29.8927 40.9743L29.9531 40.7966L30.0135 40.9743C30.1326 41.3182 30.3236 41.6323 30.5736 41.8951C30.8237 42.1579 31.1268 42.3633 31.4625 42.4974C31.1268 42.6314 30.8237 42.8369 30.5736 43.0997C30.3236 43.3625 30.1326 43.6765 30.0135 44.0204L29.9531 44.1981Z" fill="white"/>
<path d="M36.1671 14.2906L36.1269 14.1637C36.0451 13.9216 35.913 13.6999 35.7395 13.5134C35.5659 13.3269 35.3549 13.18 35.1206 13.0824C35.3553 12.9853 35.5666 12.8386 35.7402 12.652C35.9138 12.4654 36.0457 12.2434 36.1269 12.001L36.1671 11.8792L36.2074 12.001C36.2886 12.2434 36.4205 12.4654 36.5941 12.652C36.7677 12.8386 36.979 12.9853 37.2136 13.0824C36.9793 13.18 36.7683 13.3269 36.5948 13.5134C36.4213 13.6999 36.2892 13.9216 36.2074 14.1637L36.1671 14.2906Z" fill="white"/>
<path d="M47.2609 26.6879L47.2206 26.566C47.14 26.3233 47.0083 26.101 46.8347 25.9143C46.661 25.7277 46.4494 25.5811 46.2144 25.4847C46.4489 25.3873 46.66 25.2405 46.8336 25.054C47.0071 24.8674 47.1391 24.6456 47.2206 24.4033L47.2609 24.2764L47.3062 24.4033C47.3877 24.6456 47.5196 24.8674 47.6932 25.054C47.8668 25.2405 48.0779 25.3873 48.3124 25.4847C48.0774 25.5811 47.8658 25.7277 47.6921 25.9143C47.5184 26.101 47.3868 26.3233 47.3062 26.566L47.2609 26.6879Z" fill="white"/>
<path d="M9.66688 27.0182L9.62663 26.8964C9.54542 26.6539 9.41355 26.4319 9.23994 26.2454C9.06634 26.0588 8.85504 25.9121 8.62036 25.815C8.85504 25.718 9.06634 25.5712 9.23994 25.3847C9.41355 25.1981 9.54542 24.9761 9.62663 24.7337L9.66688 24.6118L9.71216 24.7337C9.79279 24.9764 9.92444 25.1987 10.0981 25.3854C10.2718 25.572 10.4834 25.7186 10.7184 25.815C10.4834 25.9115 10.2718 26.058 10.0981 26.2447C9.92444 26.4313 9.79279 26.6536 9.71216 26.8964L9.66688 27.0182Z" fill="white"/>
<path opacity="0.3" d="M14.14 20.3169C14.4929 20.3169 14.7789 20.0282 14.7789 19.6721C14.7789 19.316 14.4929 19.0273 14.14 19.0273C13.7871 19.0273 13.501 19.316 13.501 19.6721C13.501 20.0282 13.7871 20.3169 14.14 20.3169Z" fill="white"/>
<path opacity="0.3" d="M20.9869 13.727C21.3398 13.727 21.6259 13.4383 21.6259 13.0823C21.6259 12.7262 21.3398 12.4375 20.9869 12.4375C20.634 12.4375 20.3479 12.7262 20.3479 13.0823C20.3479 13.4383 20.634 13.727 20.9869 13.727Z" fill="white"/>
<path opacity="0.3" d="M43.4171 20.4638C43.77 20.4638 44.056 20.1752 44.056 19.8191C44.056 19.463 43.77 19.1743 43.4171 19.1743C43.0642 19.1743 42.7781 19.463 42.7781 19.8191C42.7781 20.1752 43.0642 20.4638 43.4171 20.4638Z" fill="white"/>
<path opacity="0.3" d="M38.8284 35.6335C39.1813 35.6335 39.4674 35.3448 39.4674 34.9887C39.4674 34.6327 39.1813 34.344 38.8284 34.344C38.4755 34.344 38.1895 34.6327 38.1895 34.9887C38.1895 35.3448 38.4755 35.6335 38.8284 35.6335Z" fill="white"/>
<path opacity="0.3" d="M17.8226 34.9887C18.1755 34.9887 18.4616 34.7001 18.4616 34.344C18.4616 33.9879 18.1755 33.6992 17.8226 33.6992C17.4697 33.6992 17.1836 33.9879 17.1836 34.344C17.1836 34.7001 17.4697 34.9887 17.8226 34.9887Z" fill="white"/>
<path opacity="0.3" d="M25.9334 42.477C26.2863 42.477 26.5724 42.1883 26.5724 41.8323C26.5724 41.4762 26.2863 41.1875 25.9334 41.1875C25.5805 41.1875 25.2944 41.4762 25.2944 41.8323C25.2944 42.1883 25.5805 42.477 25.9334 42.477Z" fill="white"/>
<path d="M28.58 38.6287C32.7703 38.6287 36.1672 37.9922 36.1672 37.2072C36.1672 36.4221 32.7703 35.7856 28.58 35.7856C24.3896 35.7856 20.9927 36.4221 20.9927 37.2072C20.9927 37.9922 24.3896 38.6287 28.58 38.6287Z" fill="black"/>
<path d="M35.2162 15.9303C34.5191 15.9265 33.8432 15.6876 33.2962 15.2515C32.7492 14.8155 32.3624 14.2074 32.1974 13.5239H25.0478C24.882 14.2069 24.495 14.8146 23.9482 15.2505C23.4013 15.6864 22.7259 15.9257 22.029 15.9303H17.6719V20.9158C17.6724 24.448 18.7077 27.9012 20.6476 30.8414C22.5875 33.7816 25.3455 36.0776 28.5748 37.4408H28.61C31.8528 36.0835 34.6236 33.7859 36.5716 30.8388C38.5196 27.8918 39.5573 24.4277 39.5532 20.8853V15.9303H35.2162Z" fill="#3577FF"/>
<path d="M28.58 35.0039C25.9654 33.7161 23.7627 31.712 22.2234 29.2207C20.6842 26.7295 19.8707 23.8515 19.8758 20.9158V18.154H22.009C22.8898 18.155 23.757 17.9358 24.5332 17.5158C25.3093 17.0959 25.9703 16.4883 26.4568 15.7476H30.7686C31.2545 16.489 31.9153 17.097 32.6916 17.517C33.4679 17.9371 34.3355 18.1559 35.2163 18.154H37.3496V20.8853C37.3556 23.8335 36.5355 26.7234 34.9838 29.2215C33.4321 31.7196 31.2122 33.7241 28.58 35.0039Z" fill="#1B59F8"/>
<path d="M18.3969 29.8206H11.8914L14.0196 26.3226L11.8914 22.8247H18.3969V29.8206Z" fill="url(#paint1_linear_290_1303)"/>
<path d="M15.9709 28.2266L18.3961 29.8207V28.2266H15.9709Z" fill="#FFCE51"/>
<path d="M38.8286 29.8206H45.3342L43.2059 26.3226L45.3342 22.8247H38.8286V29.8206Z" fill="url(#paint2_linear_290_1303)"/>
<path d="M41.2588 28.2266L38.8286 29.8207V28.2266H41.2588Z" fill="#FFCE51"/>
<path d="M41.1434 21.2305H15.9666V28.2263H41.1434V21.2305Z" fill="#FF3E13"/>
<path d="M28.5647 7.42676V10.9145" stroke="white" stroke-width="1.42151" stroke-miterlimit="10"/>
<path d="M24.1626 8.86865L25.5714 11.6558" stroke="white" stroke-width="1.42151" stroke-miterlimit="10"/>
<path d="M32.9667 8.86865L31.563 11.6558" stroke="white" stroke-width="1.42151" stroke-miterlimit="10"/>
<path d="M28.5494 31.0134C32.0534 31.0134 34.8939 28.1472 34.8939 24.6116C34.8939 21.0759 32.0534 18.2097 28.5494 18.2097C25.0454 18.2097 22.2048 21.0759 22.2048 24.6116C22.2048 28.1472 25.0454 31.0134 28.5494 31.0134Z" fill="url(#paint3_linear_290_1303)"/>
<path d="M25.5713 24.7641L27.4279 26.6425L31.4529 22.5811" stroke="white" stroke-width="1.92614" stroke-miterlimit="10"/>
<path d="M42.9558 16.6347L42.8652 16.3758C42.6927 15.8642 42.4128 15.3961 42.0446 15.0036C41.6765 14.6111 41.2287 14.3034 40.7319 14.1014C41.2285 13.8977 41.676 13.5888 42.044 13.1955C42.4121 12.8023 42.6921 12.3338 42.8652 11.8219L42.9558 11.563L43.0413 11.8219C43.2144 12.3338 43.4945 12.8023 43.8625 13.1955C44.2306 13.5888 44.678 13.8977 45.1746 14.1014C44.6778 14.3034 44.2301 14.6111 43.8619 15.0036C43.4938 15.3961 43.2139 15.8642 43.0413 16.3758L42.9558 16.6347Z" fill="#FFCE51"/>
<path opacity="0.3" d="M37.9044 43.1683C38.3212 43.1683 38.6591 42.8274 38.6591 42.4068C38.6591 41.9862 38.3212 41.6453 37.9044 41.6453C37.4875 41.6453 37.1497 41.9862 37.1497 42.4068C37.1497 42.8274 37.4875 43.1683 37.9044 43.1683Z" fill="white"/>
<path d="M44.3195 35.9289L44.2591 35.7614C44.1484 35.4286 43.9673 35.1242 43.7284 34.8691C43.4894 34.614 43.1984 34.4144 42.8755 34.284C43.1976 34.1522 43.4878 33.952 43.7265 33.6971C43.9652 33.4423 44.1469 33.1386 44.2591 32.8066L44.3195 32.634L44.3748 32.8066C44.488 33.1381 44.6699 33.4413 44.9085 33.6961C45.1471 33.9509 45.4369 34.1513 45.7585 34.284C45.436 34.4152 45.1455 34.6152 44.9067 34.8702C44.6679 35.1251 44.4865 35.4291 44.3748 35.7614L44.3195 35.9289Z" fill="white"/>
<path d="M13.3718 17.9112L13.2762 17.637C13.0947 17.0984 12.8003 16.6056 12.4131 16.1921C12.0259 15.7786 11.5549 15.4541 11.0322 15.2408C11.5542 15.0277 12.0247 14.7039 12.4119 14.2914C12.799 13.8788 13.0938 13.3871 13.2762 12.8496L13.3718 12.5754L13.4624 12.8496C13.6465 13.387 13.9425 13.8784 14.3304 14.2908C14.7183 14.7033 15.1892 15.0272 15.7114 15.2408C15.1885 15.4546 14.7171 15.7792 14.3291 16.1926C13.9412 16.606 13.6456 17.0985 13.4624 17.637L13.3718 17.9112Z" fill="#FFCE51"/>
<path d="M36.6924 9.58515L36.642 9.43793C36.5447 9.15066 36.3875 8.88781 36.1809 8.6671C35.9744 8.4464 35.7233 8.27298 35.4446 8.15857C35.724 8.04588 35.9761 7.87371 36.1836 7.65381C36.3911 7.4339 36.5492 7.17143 36.6471 6.88429L36.6974 6.73706L36.7477 6.88429C36.845 7.17093 37.0023 7.43309 37.209 7.65297C37.4156 7.87284 37.6667 8.04527 37.9452 8.15857C37.6665 8.27298 37.4154 8.4464 37.2088 8.6671C37.0022 8.88781 36.845 9.15066 36.7477 9.43793L36.6924 9.58515Z" fill="white"/>
<path d="M19.415 9.58515L19.3647 9.43793C19.2674 9.15066 19.1102 8.88781 18.9036 8.6671C18.697 8.4464 18.4459 8.27298 18.1672 8.15857C18.4457 8.04527 18.6968 7.87284 18.9034 7.65297C19.1101 7.43309 19.2674 7.17093 19.3647 6.88429L19.415 6.73706L19.4653 6.88429C19.5618 7.17141 19.7187 7.43403 19.9255 7.65402C20.1322 7.87401 20.3838 8.04615 20.6628 8.15857C20.3836 8.27212 20.132 8.44524 19.9253 8.66606C19.7187 8.88688 19.5617 9.15019 19.4653 9.43793L19.415 9.58515Z" fill="white"/>
<path d="M12.4162 35.4667L12.3357 35.2332C12.1822 34.7766 11.9328 34.3588 11.6045 34.0083C11.2763 33.6578 10.877 33.383 10.4338 33.2025C10.8763 33.0209 11.275 32.7456 11.6031 32.3953C11.9312 32.045 12.181 31.6278 12.3357 31.1718L12.4162 30.9382L12.4917 31.1718C12.6475 31.6279 12.8983 32.0452 13.2272 32.3955C13.5561 32.7457 13.9555 33.0209 14.3985 33.2025C13.9546 33.3826 13.5545 33.6573 13.2254 34.0078C12.8963 34.3583 12.646 34.7762 12.4917 35.2332L12.4162 35.4667Z" fill="white"/>
<path opacity="0.3" d="M23.7225 45.4322C24.1393 45.4322 24.4772 45.0913 24.4772 44.6707C24.4772 44.2501 24.1393 43.9092 23.7225 43.9092C23.3057 43.9092 22.9678 44.2501 22.9678 44.6707C22.9678 45.0913 23.3057 45.4322 23.7225 45.4322Z" fill="white"/>
<path d="M19.0429 44.1552L18.9524 43.8963C18.7798 43.3847 18.5 42.9166 18.1318 42.5241C17.7636 42.1316 17.3159 41.8239 16.8191 41.6219C17.3157 41.4182 17.7632 41.1093 18.1312 40.716C18.4992 40.3228 18.7793 39.8543 18.9524 39.3424L19.0429 39.0835L19.1285 39.3424C19.3016 39.8543 19.5816 40.3228 19.9497 40.716C20.3177 41.1093 20.7652 41.4182 21.2618 41.6219C20.765 41.8239 20.3172 42.1316 19.9491 42.5241C19.5809 42.9166 19.301 43.3847 19.1285 43.8963L19.0429 44.1552Z" fill="#FFCE51"/>
<path d="M40.9052 42.087L40.8392 41.8985C40.7136 41.5259 40.5098 41.1851 40.2417 40.8993C39.9736 40.6135 39.6476 40.3894 39.2859 40.2424C39.6475 40.0941 39.9733 39.8691 40.2413 39.5828C40.5093 39.2964 40.7132 38.9553 40.8392 38.5826L40.9052 38.394L40.9674 38.5826C41.0935 38.9553 41.2974 39.2964 41.5654 39.5828C41.8334 39.8691 42.1592 40.0941 42.5208 40.2424C42.1591 40.3894 41.833 40.6135 41.565 40.8993C41.2969 41.1851 41.0931 41.5259 40.9674 41.8985L40.9052 42.087Z" fill="#FFCE51"/>
<path d="M29.9529 44.1424L29.8925 43.9647C29.774 43.6213 29.5837 43.3076 29.3346 43.0448C29.0854 42.7821 28.7832 42.5764 28.4485 42.4417C28.7832 42.307 29.0854 42.1013 29.3346 41.8386C29.5837 41.5758 29.774 41.2621 29.8925 40.9187L29.9529 40.741L30.0132 40.9187C30.1323 41.2626 30.3234 41.5766 30.5734 41.8394C30.8234 42.1022 31.1266 42.3076 31.4623 42.4417C31.1266 42.5758 30.8234 42.7812 30.5734 43.044C30.3234 43.3068 30.1323 43.6208 30.0132 43.9647L29.9529 44.1424Z" fill="white"/>
<path d="M36.1669 14.235L36.1266 14.1081C36.0448 13.8659 35.9128 13.6442 35.7392 13.4577C35.5657 13.2712 35.3547 13.1243 35.1204 13.0267C35.355 12.9297 35.5663 12.7829 35.7399 12.5963C35.9135 12.4098 36.0454 12.1878 36.1266 11.9453L36.1669 11.8235L36.2071 11.9453C36.2883 12.1878 36.4202 12.4098 36.5938 12.5963C36.7674 12.7829 36.9787 12.9297 37.2134 13.0267C36.9791 13.1243 36.7681 13.2712 36.5945 13.4577C36.421 13.6442 36.2889 13.8659 36.2071 14.1081L36.1669 14.235Z" fill="white"/>
<path d="M47.2606 26.6322L47.2204 26.5103C47.1398 26.2676 47.0081 26.0453 46.8344 25.8586C46.6607 25.672 46.4491 25.5254 46.2141 25.429C46.4486 25.3317 46.6598 25.1848 46.8333 24.9983C47.0069 24.8118 47.1389 24.5899 47.2204 24.3476L47.2606 24.2207L47.3059 24.3476C47.3874 24.5899 47.5194 24.8118 47.693 24.9983C47.8665 25.1848 48.0777 25.3317 48.3122 25.429C48.0772 25.5254 47.8656 25.672 47.6919 25.8586C47.5182 26.0453 47.3865 26.2676 47.3059 26.5103L47.2606 26.6322Z" fill="white"/>
<path d="M9.66664 26.9623L9.62639 26.8405C9.54517 26.598 9.4133 26.376 9.2397 26.1895C9.06609 26.0029 8.8548 25.8561 8.62012 25.7591C8.8548 25.6621 9.06609 25.5153 9.2397 25.3288C9.4133 25.1422 9.54517 24.9202 9.62639 24.6778L9.66664 24.5559L9.71192 24.6778C9.79254 24.9205 9.9242 25.1428 10.0979 25.3295C10.2716 25.5161 10.4832 25.6627 10.7182 25.7591C10.4832 25.8556 10.2716 26.0021 10.0979 26.1888C9.9242 26.3754 9.79254 26.5977 9.71192 26.8405L9.66664 26.9623Z" fill="white"/>
<path opacity="0.3" d="M43.4168 20.4082C43.7697 20.4082 44.0558 20.1195 44.0558 19.7634C44.0558 19.4073 43.7697 19.1187 43.4168 19.1187C43.0639 19.1187 42.7778 19.4073 42.7778 19.7634C42.7778 20.1195 43.0639 20.4082 43.4168 20.4082Z" fill="white"/>
<path opacity="0.3" d="M17.8223 34.9331C18.1752 34.9331 18.4613 34.6444 18.4613 34.2883C18.4613 33.9322 18.1752 33.6436 17.8223 33.6436C17.4694 33.6436 17.1833 33.9322 17.1833 34.2883C17.1833 34.6444 17.4694 34.9331 17.8223 34.9331Z" fill="white"/>
<path d="M28.5645 7.37085V10.8586" stroke="white" stroke-width="1.42151" stroke-miterlimit="10"/>
<path d="M24.1624 8.8125L25.5711 11.5997" stroke="white" stroke-width="1.42151" stroke-miterlimit="10"/>
<path d="M32.9665 8.8125L31.5627 11.5997" stroke="white" stroke-width="1.42151" stroke-miterlimit="10"/>
<defs>
<linearGradient id="paint0_linear_290_1303" x1="28.6373" y1="55.3573" x2="28.6373" y2="2.51782" gradientUnits="userSpaceOnUse">
<stop stop-color="#FF7201"/>
<stop offset="1" stop-color="#FFA901"/>
</linearGradient>
<linearGradient id="paint1_linear_290_1303" x1="11.8914" y1="26.3226" x2="18.3969" y2="26.3226" gradientUnits="userSpaceOnUse">
<stop stop-color="#FFCE51"/>
<stop offset="1" stop-color="#FF3E13"/>
</linearGradient>
<linearGradient id="paint2_linear_290_1303" x1="-128.74" y1="431.243" x2="-212.857" y2="431.243" gradientUnits="userSpaceOnUse">
<stop stop-color="#FFCE51"/>
<stop offset="1" stop-color="#FF3E13"/>
</linearGradient>
<linearGradient id="paint3_linear_290_1303" x1="22.2099" y1="24.6116" x2="34.8939" y2="24.6116" gradientUnits="userSpaceOnUse">
<stop stop-color="#7FDD53"/>
<stop offset="1" stop-color="#2FEA9B"/>
</linearGradient>
</defs>
</svg>
