<svg width="25" height="24" viewBox="0 0 25 24" fill="none" xmlns="http://www.w3.org/2000/svg">
<rect x="0.5" width="24" height="24" rx="4" fill="white"/>
<path d="M14.1875 12.25C14.1875 13.1992 13.4141 13.9375 12.5 13.9375C11.5508 13.9375 10.8125 13.1992 10.8125 12.25C10.8125 11.3359 11.5508 10.5625 12.5 10.5625C13.4141 10.5625 14.1875 11.3359 14.1875 12.25ZM18.4062 10.5625C19.3203 10.5625 20.0938 11.3359 20.0938 12.25C20.0938 13.1992 19.3203 13.9375 18.4062 13.9375C17.457 13.9375 16.7188 13.1992 16.7188 12.25C16.7188 11.3359 17.457 10.5625 18.4062 10.5625ZM6.59375 10.5625C7.50781 10.5625 8.28125 11.3359 8.28125 12.25C8.28125 13.1992 7.50781 13.9375 6.59375 13.9375C5.64453 13.9375 4.90625 13.1992 4.90625 12.25C4.90625 11.3359 5.64453 10.5625 6.59375 10.5625Z" fill="#292B32"/>
</svg>
