<svg width="20" height="20" viewBox="0 0 20 20" fill="none" xmlns="http://www.w3.org/2000/svg">
<path d="M16.513 2.92962C14.6946 1.04089 12.2767 0.000694275 9.70506 0.000694275C7.13324 0.000694275 4.71554 1.04089 2.89709 2.92962C1.07864 4.81835 0.0771484 7.32949 0.0771484 10.0007C0.0771484 12.6717 1.07864 15.183 2.89709 17.0718C4.71554 18.9605 7.13324 20.0007 9.70506 20.0007C12.2767 20.0007 14.6946 18.9605 16.513 17.0718C18.3315 15.183 19.333 12.6717 19.333 10.0007C19.333 7.32949 18.3315 4.81835 16.513 2.92962ZM4.90388 17.2814C5.30656 14.8733 7.31571 13.097 9.70506 13.097C12.0945 13.097 14.1035 14.8733 14.5062 17.2814C13.1392 18.2569 11.4853 18.8288 9.70506 18.8288C7.9248 18.8288 6.27088 18.2569 4.90388 17.2814ZM6.64374 8.74551C6.64374 6.99212 8.01706 5.56588 9.70506 5.56588C11.3931 5.56588 12.7664 6.99227 12.7664 8.74551C12.7664 10.4987 11.3931 11.9251 9.70506 11.9251C8.01706 11.9251 6.64374 10.4987 6.64374 8.74551ZM15.4835 16.4686C15.1798 15.3475 14.5767 14.3304 13.7314 13.5359C13.2128 13.0483 12.6225 12.6637 11.9879 12.3925C13.135 11.6154 13.8948 10.2709 13.8948 8.74551C13.8948 6.34606 12.0152 4.394 9.70506 4.394C7.39489 4.394 5.51547 6.34606 5.51547 8.74551C5.51547 10.2709 6.27529 11.6154 7.42222 12.3925C6.78771 12.6637 6.19728 13.0482 5.67869 13.5357C4.83351 14.3302 4.2303 15.3474 3.92664 16.4684C2.25406 14.8551 1.20542 12.5529 1.20542 10.0007C1.20542 5.13284 5.01833 1.17257 9.70506 1.17257C14.3918 1.17257 18.2047 5.13284 18.2047 10.0007C18.2047 12.553 17.156 14.8553 15.4835 16.4686Z" fill="#28B446"/>
</svg>
