<svg width="25" height="24" viewBox="0 0 25 24" fill="none" xmlns="http://www.w3.org/2000/svg">
<path d="M17.8504 12.5555C17.8411 10.957 18.5653 9.75234 20.0278 8.86406C19.2098 7.69219 17.9723 7.04766 16.3411 6.92344C14.7965 6.80156 13.1067 7.82344 12.4879 7.82344C11.834 7.82344 10.3387 6.96563 9.16216 6.96563C6.73403 7.00313 4.15356 8.90156 4.15356 12.7641C4.15356 13.9055 4.36216 15.0844 4.77935 16.2984C5.33716 17.8969 7.3481 21.8133 9.44575 21.75C10.5426 21.7242 11.3184 20.9719 12.7458 20.9719C14.1309 20.9719 14.8481 21.75 16.0715 21.75C18.1879 21.7195 20.0067 18.1594 20.5364 16.5563C17.6981 15.218 17.8504 12.6375 17.8504 12.5555ZM15.3872 5.40703C16.5754 3.99609 16.4676 2.71172 16.4325 2.25C15.3825 2.31094 14.1684 2.96484 13.477 3.76875C12.7153 4.63125 12.2676 5.69766 12.3637 6.9C13.4981 6.98672 14.534 6.40313 15.3872 5.40703Z" fill="black"/>
</svg>
