<svg width="34" height="34" viewBox="0 0 34 34" fill="none" xmlns="http://www.w3.org/2000/svg">
<path d="M16.6056 33.9216C16.4962 33.9216 16.3855 33.8947 16.2858 33.841L0.373923 25.3605C0.145463 25.2389 0.00146484 24.9972 0.00146484 24.7343V8.83333C0.00146484 8.58881 0.126079 8.36124 0.329615 8.23262C0.533152 8.104 0.789303 8.09269 1.00253 8.20153L16.9144 16.3287C17.1484 16.4489 17.2965 16.6934 17.2965 16.9605V33.2149C17.2965 33.4622 17.1705 33.6912 16.9628 33.8198C16.8548 33.8877 16.7302 33.9216 16.6056 33.9216ZM1.38607 24.3061L15.9133 32.0488V17.3973L1.38607 9.97679V24.3061Z" fill="#28B446"/>
<path d="M16.6276 33.9213C16.503 33.9213 16.3784 33.8874 16.269 33.8195C16.0627 33.6909 15.9353 33.4619 15.9353 33.2146V16.9602C15.9353 16.6931 16.0835 16.4486 16.3175 16.3284L32.2293 8.20124C32.4411 8.09099 32.6987 8.1023 32.9022 8.23233C33.1071 8.36095 33.2317 8.58851 33.2317 8.83304V24.734C33.2317 24.9969 33.0877 25.2386 32.8593 25.3602L16.9474 33.8407C16.8478 33.8944 16.737 33.9213 16.6276 33.9213ZM17.3199 17.397V32.0485L31.8471 24.3058V9.9765L17.3199 17.397ZM32.5394 24.734H32.5533H32.5394Z" fill="#28B446"/>
<path d="M0.69374 9.5399C0.438973 9.5399 0.195283 9.39714 0.0734383 9.14979C-0.0982523 8.80068 0.0415924 8.37665 0.383589 8.20139L16.3176 0.0742047C16.5128 -0.0247349 16.7427 -0.0247349 16.9365 0.0742047L32.8483 8.20139C33.1903 8.37665 33.3288 8.80068 33.1585 9.14979C32.9868 9.49891 32.5728 9.63884 32.2294 9.4664L16.6277 1.49611L1.00389 9.46499C0.904199 9.51587 0.798969 9.5399 0.69374 9.5399Z" fill="#28B446"/>
<path d="M24.9245 21.2006C24.5424 21.2006 24.2322 20.884 24.2322 20.4939V13.1569L8.70256 5.22473C8.36056 5.05088 8.2221 4.62544 8.39379 4.27632C8.56548 3.9272 8.98086 3.78728 9.32286 3.95971L25.2347 12.0869C25.4687 12.2085 25.6168 12.453 25.6168 12.7201V20.4939C25.6168 20.884 25.3067 21.2006 24.9245 21.2006Z" fill="#28B446"/>
</svg>
