<svg width="30" height="30" viewBox="0 0 30 30" fill="none" xmlns="http://www.w3.org/2000/svg">
<path d="M12.5 27.5H17.5C23.75 27.5 26.25 25 26.25 18.75V11.25C26.25 5 23.75 2.5 17.5 2.5H12.5C6.25 2.5 3.75 5 3.75 11.25V18.75C3.75 25 6.25 27.5 12.5 27.5Z" stroke="#F8F7F3" stroke-width="2" stroke-linecap="round" stroke-linejoin="round"/>
<path d="M20.625 9.4751V10.7251C20.625 11.7501 19.7875 12.6001 18.75 12.6001H11.25C10.225 12.6001 9.375 11.7626 9.375 10.7251V9.4751C9.375 8.4501 10.2125 7.6001 11.25 7.6001H18.75C19.7875 7.6001 20.625 8.4376 20.625 9.4751Z" stroke="#F8F7F3" stroke-width="2" stroke-linecap="round" stroke-linejoin="round"/>
<path d="M10.1701 17.5H10.1846" stroke="#F8F7F3" stroke-width="2" stroke-linecap="round" stroke-linejoin="round"/>
<path d="M14.9941 17.5H15.0085" stroke="#F8F7F3" stroke-width="2" stroke-linecap="round" stroke-linejoin="round"/>
<path d="M19.818 17.5H19.8324" stroke="#F8F7F3" stroke-width="2" stroke-linecap="round" stroke-linejoin="round"/>
<path d="M10.1701 21.875H10.1846" stroke="#F8F7F3" stroke-width="2" stroke-linecap="round" stroke-linejoin="round"/>
<path d="M14.9941 21.875H15.0085" stroke="#F8F7F3" stroke-width="2" stroke-linecap="round" stroke-linejoin="round"/>
<path d="M19.818 21.875H19.8324" stroke="#F8F7F3" stroke-width="2" stroke-linecap="round" stroke-linejoin="round"/>
</svg>
