<svg width="21" height="20" viewBox="0 0 21 20" fill="none" xmlns="http://www.w3.org/2000/svg">
<path d="M19.4573 11.2507C19.4585 10.6248 19.3032 10.0086 19.0053 9.45821C18.7074 8.90781 18.2765 8.44071 17.7518 8.09949C17.2272 7.75827 16.6255 7.55378 16.0016 7.50466C15.3777 7.45554 14.7514 7.56336 14.1798 7.81828C13.6082 8.0732 13.1096 8.46712 12.7292 8.96414C12.3489 9.46115 12.099 10.0455 12.0023 10.6638C11.9056 11.2821 11.9652 11.9148 12.1757 12.5042C12.3862 13.0936 12.7408 13.6209 13.2073 14.0382V18.7507L15.7073 17.5675L18.2073 18.7507V14.0382C18.6002 13.6878 18.9147 13.2583 19.1301 12.778C19.3455 12.2976 19.457 11.7771 19.4573 11.2507ZM16.9573 16.7757L15.7073 16.1838L14.4573 16.7757V14.7819C15.2652 15.073 16.1494 15.073 16.9573 14.7819V16.7757ZM15.7073 13.7507C15.2128 13.7507 14.7295 13.604 14.3183 13.3293C13.9072 13.0546 13.5868 12.6642 13.3976 12.2074C13.2084 11.7506 13.1588 11.2479 13.2553 10.7629C13.3518 10.278 13.5899 9.83254 13.9395 9.4829C14.2891 9.13327 14.7346 8.89517 15.2195 8.79871C15.7045 8.70224 16.2072 8.75175 16.664 8.94097C17.1208 9.13019 17.5112 9.45062 17.7859 9.86175C18.0607 10.2729 18.2073 10.7562 18.2073 11.2507C18.2064 11.9135 17.9428 12.5489 17.4741 13.0175C17.0055 13.4862 16.3701 13.7498 15.7073 13.7507ZM6.33228 8.75067H10.7073V10.0007H6.33228V8.75067ZM6.33228 5.00067H12.5823V6.25067H6.33228V5.00067Z" fill="#28B446"/>
<path d="M4.45728 18.7507C4.12575 18.7507 3.80781 18.619 3.57339 18.3846C3.33897 18.1501 3.20728 17.8322 3.20728 17.5007V2.50067C3.20728 2.16915 3.33897 1.85121 3.57339 1.61679C3.80781 1.38237 4.12575 1.25067 4.45728 1.25067H14.4573C14.7888 1.25067 15.1067 1.38237 15.3412 1.61679C15.5756 1.85121 15.7073 2.16915 15.7073 2.50067V5.00067H14.4573V2.50067H4.45728V17.5007H10.7073V18.7507H4.45728Z" fill="#28B446"/>
</svg>
