<svg width="16" height="15" viewBox="0 0 16 15" fill="none" xmlns="http://www.w3.org/2000/svg">
<path d="M13.0098 8.49931V7.49931C13.0098 7.2341 12.9044 6.97974 12.7169 6.79221C12.5293 6.60467 12.275 6.49931 12.0098 6.49931H2.00977C1.74455 6.49931 1.4902 6.60467 1.30266 6.79221C1.11512 6.97974 1.00977 7.2341 1.00977 7.49931V13.4993C1.00977 13.7645 1.11512 14.0189 1.30266 14.2064C1.4902 14.394 1.74455 14.4993 2.00977 14.4993H12.0098C12.275 14.4993 12.5293 14.394 12.7169 14.2064C12.9044 14.0189 13.0098 13.7645 13.0098 13.4993V12.4993M13.0098 8.49931H9.00977C8.47933 8.49931 7.97062 8.71003 7.59555 9.0851C7.22048 9.46017 7.00977 9.96888 7.00977 10.4993C7.00977 11.0297 7.22048 11.5385 7.59555 11.9135C7.97062 12.2886 8.47933 12.4993 9.00977 12.4993H13.0098M13.0098 8.49931C13.5402 8.49931 14.0489 8.71003 14.424 9.0851C14.7991 9.46017 15.0098 9.96888 15.0098 10.4993C15.0098 11.0297 14.7991 11.5385 14.424 11.9135C14.0489 12.2886 13.5402 12.4993 13.0098 12.4993M4.00977 6.49931V3.49931C4.00977 2.70366 4.32584 1.9406 4.88845 1.37799C5.45105 0.815384 6.21412 0.499313 7.00977 0.499313C7.80542 0.499313 8.56848 0.815384 9.13109 1.37799C9.6937 1.9406 10.0098 2.70366 10.0098 3.49931V6.49931M12.5098 10.4993H13.5098M10.5098 10.4993H11.5098M8.50977 10.4993H9.50977" stroke="#28B446"/>
</svg>
