<svg width="39" height="39" viewBox="0 0 39 39" fill="none" xmlns="http://www.w3.org/2000/svg">
<path d="M12.4336 18.6689C13.2876 19.9918 14.473 21.0594 15.8715 21.7696V22.2264H15.4189C15.2098 22.2264 15.0402 22.396 15.0402 22.6049C15.0402 22.8143 15.2098 22.9839 15.4189 22.9839H15.8715V28.1395C15.8715 28.3487 16.0411 28.518 16.2506 28.518H17.7312V29.5395C17.7312 29.7493 17.9008 29.9186 18.11 29.9186H21.6412C21.8507 29.9186 22.0203 29.7493 22.0203 29.5395L22.0206 28.5183H23.5003C23.7101 28.5183 23.8794 28.349 23.8794 28.1399V26.684H24.3323C24.5417 26.684 24.7111 26.5141 24.7111 26.3049C24.7111 26.0954 24.5417 25.9261 24.3323 25.9261H23.8794V24.888H24.3323C24.5417 24.888 24.7111 24.7184 24.7111 24.5089C24.7111 24.2997 24.5417 24.1298 24.3323 24.1298H23.8794V22.9855H24.3323C24.5417 22.9855 24.7111 22.8159 24.7111 22.6064C24.7111 22.3975 24.5417 22.2279 24.3323 22.2279H23.8794V21.7712C25.2782 21.061 26.4633 19.9933 27.3176 18.6705C28.2396 17.2416 28.7277 15.584 28.7277 13.8761C28.7277 8.99458 24.756 5.02344 19.8757 5.02344C14.9948 5.02344 11.0238 8.99451 11.0238 13.8761C11.0238 15.5825 11.5115 17.2408 12.4339 18.669L12.4336 18.6689ZM21.2627 29.1608H18.4884V28.5181H21.2627V29.1608ZM23.1215 24.1293H19.0751C18.866 24.1293 18.6964 24.2986 18.6964 24.5078C18.6964 24.7172 18.8657 24.8868 19.0751 24.8868H23.1215V25.925H19.0751C18.866 25.925 18.6964 26.0943 18.6964 26.3038C18.6964 26.5132 18.8657 26.6828 19.0751 26.6828H23.1215V27.76H21.643H21.6412H21.6397H18.1114H18.1099H18.1084H16.629L16.6287 22.9844H23.1215L23.1215 24.1293ZM19.8752 5.78024C24.3388 5.78024 27.97 9.41151 27.97 13.875C27.97 16.9865 26.1517 19.859 23.3387 21.1929C23.331 21.1964 23.325 21.2012 23.3176 21.2051C23.3057 21.2125 23.2929 21.2187 23.2807 21.2277C23.2706 21.2345 23.2619 21.2426 23.2539 21.2503C23.2444 21.2583 23.2343 21.2661 23.2262 21.2753C23.2179 21.2842 23.2102 21.2943 23.2024 21.3035C23.1947 21.3131 23.1876 21.3223 23.181 21.333C23.1745 21.3431 23.1694 21.3538 23.164 21.3645C23.1578 21.3753 23.153 21.3866 23.148 21.3979C23.1438 21.4098 23.1402 21.4217 23.1376 21.4333C23.134 21.4449 23.1301 21.4562 23.1283 21.4687C23.1257 21.4824 23.1254 21.4964 23.1242 21.5106C23.1239 21.5187 23.1215 21.5267 23.1215 21.5353V22.2268L16.6291 22.2265V21.535C16.6291 21.527 16.6273 21.5196 16.6267 21.5121C16.6258 21.4973 16.6249 21.4821 16.6222 21.4681C16.6204 21.4571 16.6169 21.4455 16.6139 21.4345C16.6109 21.4223 16.607 21.4104 16.6029 21.3976C16.5984 21.3866 16.5928 21.3761 16.5874 21.3654C16.5818 21.3547 16.5764 21.3431 16.5693 21.3324C16.5627 21.3223 16.5559 21.3137 16.549 21.3047C16.541 21.2943 16.5333 21.2839 16.5243 21.2744C16.5163 21.2661 16.5074 21.2583 16.4981 21.2509C16.4889 21.2426 16.4797 21.2339 16.4693 21.2268C16.4577 21.2187 16.4458 21.2122 16.4336 21.2054C16.4258 21.2009 16.4199 21.1958 16.4116 21.192C13.5982 19.8584 11.7802 16.9858 11.7802 13.8744C11.7811 9.41123 15.4121 5.78042 19.875 5.78042L19.8752 5.78024Z" fill="black"/>
<path d="M19.8755 3.74526C20.085 3.74526 20.2546 3.57536 20.2546 3.36648V2.0302C20.2546 1.82102 20.085 1.65112 19.8755 1.65112C19.6661 1.65112 19.4965 1.82073 19.4965 2.0302V3.36648C19.4965 3.57536 19.6661 3.74526 19.8755 3.74526Z" fill="black"/>
<path d="M14.3767 4.94105C14.4469 5.06245 14.5743 5.13059 14.7052 5.13059C14.7691 5.13059 14.8346 5.11452 14.8944 5.07941C15.0756 4.97497 15.1372 4.74318 15.0331 4.56197L14.3651 3.40484C14.2606 3.22364 14.0289 3.16205 13.8476 3.26619C13.6661 3.37093 13.6043 3.60272 13.7087 3.78392L14.3767 4.94105Z" fill="black"/>
<path d="M9.57329 8.19677L10.7304 8.86476C10.7899 8.89927 10.8551 8.91534 10.9194 8.91534C11.0506 8.91534 11.1776 8.8475 11.2479 8.7261C11.3526 8.5446 11.2904 8.3131 11.1092 8.20837L9.95207 7.54038C9.77086 7.43564 9.53907 7.49783 9.43434 7.67903C9.3299 7.85994 9.39208 8.09233 9.57329 8.19677Z" fill="black"/>
<path d="M9.91306 13.7079C9.91306 13.499 9.74345 13.3291 9.53428 13.3291H8.19799C7.98912 13.3291 7.81921 13.499 7.81921 13.7079C7.81921 13.9171 7.98912 14.087 8.19799 14.087H9.53428C9.74345 14.0873 9.91306 13.9171 9.91306 13.7079Z" fill="black"/>
<path d="M11.2475 18.6886C11.1428 18.5071 10.911 18.4449 10.7298 18.5496L9.57238 19.217C9.39087 19.3218 9.32899 19.5536 9.43343 19.7348C9.50365 19.8565 9.631 19.9246 9.76192 19.9246C9.82589 19.9246 9.89164 19.9082 9.95116 19.8731L11.1086 19.2057C11.2901 19.1019 11.352 18.8701 11.2475 18.6886Z" fill="black"/>
<path d="M30.1779 19.2181L29.0208 18.5504C28.8392 18.446 28.6075 18.5082 28.503 18.6894C28.3986 18.8709 28.4605 19.1027 28.6417 19.2071L29.7988 19.8745C29.8583 19.9093 29.9235 19.9257 29.988 19.9257C30.1193 19.9257 30.2463 19.8578 30.3162 19.7364C30.421 19.5543 30.3594 19.3229 30.1779 19.2181Z" fill="black"/>
<path d="M31.5528 13.3291H30.2177C30.0082 13.3291 29.8386 13.4987 29.8386 13.7079C29.8386 13.9171 30.0082 14.087 30.2177 14.087H31.5528C31.7622 14.087 31.9318 13.9171 31.9318 13.7079C31.9321 13.4987 31.7622 13.3291 31.5528 13.3291Z" fill="black"/>
<path d="M28.8318 8.91591C28.8964 8.91591 28.9616 8.89955 29.0211 8.86474L30.1782 8.19675C30.3597 8.09201 30.4216 7.86022 30.3168 7.67901C30.2121 7.49781 29.9806 7.43622 29.7991 7.54036L28.642 8.20894C28.4605 8.31338 28.3986 8.54517 28.5033 8.72667C28.5736 8.84777 28.7009 8.91591 28.8318 8.91591Z" fill="black"/>
<path d="M24.8564 5.07986C24.9162 5.11438 24.982 5.13104 25.046 5.13104C25.1772 5.13104 25.3045 5.0632 25.3742 4.9415L26.0422 3.78438C26.1463 3.60317 26.0844 3.37138 25.9035 3.26694C25.722 3.1622 25.4902 3.22439 25.3855 3.4056L24.7178 4.56272C24.6136 4.74333 24.6761 4.97513 24.8564 5.07986Z" fill="black"/>
<path d="M19.8755 30.4419C19.6661 30.4419 19.4965 30.6112 19.4965 30.8207V37.4348C19.4965 37.6446 19.6661 37.8139 19.8755 37.8139C20.085 37.8139 20.2546 37.6446 20.2546 37.4348V30.8207C20.2549 30.6115 20.0847 30.4419 19.8755 30.4419Z" fill="black"/>
<path d="M18.797 34.8782C18.7961 34.8737 18.7967 34.869 18.7958 34.8648C18.3882 32.6978 17.4581 31.2011 16.0313 30.4186C13.759 29.1719 11.0939 30.2157 10.9817 30.2609C10.9736 30.2639 10.9671 30.2689 10.9594 30.2716C10.9475 30.2778 10.9353 30.2835 10.9239 30.2903C10.9132 30.2969 10.9037 30.304 10.8939 30.3118C10.8844 30.3195 10.8749 30.3263 10.8656 30.3347C10.8564 30.343 10.8484 30.3522 10.8394 30.362C10.8317 30.371 10.824 30.3796 10.8168 30.3888C10.8094 30.3983 10.8034 30.4097 10.7978 30.4195C10.7915 30.4299 10.785 30.4409 10.7796 30.4516C10.7752 30.4623 10.7713 30.473 10.7668 30.4837C10.7627 30.4956 10.7585 30.5078 10.7552 30.5209C10.7523 30.5319 10.7508 30.5433 10.749 30.5543C10.7472 30.5674 10.7451 30.5799 10.7445 30.5938C10.7436 30.6054 10.7445 30.6179 10.7448 30.6304C10.7451 30.6394 10.7445 30.6486 10.7451 30.6581C10.7597 30.7783 11.1263 33.616 13.312 35.0097C14.0824 35.4998 14.9744 35.7459 15.9796 35.7459C16.7651 35.7459 17.6202 35.5953 18.5399 35.2954C18.5423 35.2942 18.5441 35.293 18.5468 35.2924C18.553 35.29 18.559 35.2885 18.5649 35.2862C18.5664 35.285 18.5685 35.2847 18.5703 35.2835C18.5837 35.2781 18.5968 35.2719 18.6096 35.2647C18.6111 35.2635 18.6122 35.2623 18.6137 35.2621C18.6176 35.2597 18.6212 35.2567 18.6244 35.2543C18.6289 35.2516 18.6334 35.249 18.6375 35.2463C18.6468 35.2397 18.656 35.2329 18.6649 35.2252C18.6688 35.2222 18.6726 35.2186 18.6765 35.2159C18.6804 35.2121 18.6845 35.2085 18.6887 35.2049C18.6899 35.2037 18.6905 35.2025 18.6917 35.2014C18.7021 35.1909 18.7119 35.1799 18.7211 35.168C18.7223 35.1668 18.7226 35.1656 18.7238 35.1645C18.7262 35.1609 18.728 35.157 18.7304 35.1543C18.7333 35.1502 18.7366 35.146 18.7396 35.1409C18.7426 35.1365 18.7461 35.1329 18.7488 35.1273C18.7506 35.1234 18.7518 35.1195 18.7542 35.1165C18.758 35.1091 18.7619 35.1029 18.7649 35.0954C18.7688 35.0874 18.7717 35.0794 18.775 35.0713C18.778 35.0633 18.7812 35.0553 18.7839 35.0472C18.7857 35.0398 18.7878 35.0335 18.7896 35.0261C18.7914 35.0181 18.7934 35.0091 18.7949 35.0008C18.7964 34.9925 18.7985 34.9838 18.7991 34.9755C18.8 34.9678 18.8 34.9612 18.8006 34.9535C18.8009 34.9452 18.8009 34.9362 18.8009 34.9279C18.8006 34.9199 18.8006 34.9104 18.7997 34.9023C18.7997 34.8937 18.7982 34.8862 18.797 34.8782ZM14.1196 32.8272L17.4637 34.8068C15.9706 35.1457 14.715 35.0016 13.7247 34.3723C12.2239 33.419 11.7038 31.5858 11.5526 30.8669C12.2557 30.6536 14.113 30.2281 15.6706 31.085C16.6986 31.6506 17.4285 32.6823 17.8495 34.1542L14.5057 32.174C14.3254 32.0681 14.0927 32.1273 13.9862 32.3076C13.8797 32.488 13.9395 32.72 14.1195 32.8271L14.1196 32.8272Z" fill="black"/>
<path d="M28.8067 30.5196C28.8037 30.508 28.7999 30.4967 28.7957 30.4854C28.7915 30.4738 28.7874 30.4619 28.782 30.4509C28.777 30.4408 28.7716 30.4307 28.7657 30.4209C28.7591 30.4098 28.7526 30.3985 28.7448 30.3878C28.7383 30.3795 28.7314 30.3715 28.7237 30.3628C28.7154 30.3527 28.7061 30.3426 28.696 30.3337C28.688 30.3259 28.6791 30.32 28.6707 30.3126C28.66 30.3045 28.6493 30.2968 28.6377 30.2891C28.6276 30.2828 28.6166 30.278 28.6062 30.2727C28.5978 30.2682 28.5901 30.2638 28.5812 30.2599C28.469 30.2147 25.8042 29.1715 23.5321 30.4176C22.1048 31.2001 21.175 32.6965 20.7667 34.8638C20.7664 34.8689 20.7667 34.8727 20.7655 34.8775C20.7643 34.8855 20.7637 34.8936 20.7625 34.9016C20.7617 34.9096 20.7617 34.918 20.7614 34.9257C20.7614 34.9349 20.7614 34.9433 20.7617 34.9525C20.7625 34.9602 20.7625 34.9671 20.7634 34.9748C20.7643 34.9828 20.7652 34.9909 20.7673 34.9989C20.7688 35.0081 20.7703 35.0174 20.7727 35.0254C20.775 35.0331 20.7765 35.04 20.7783 35.0468C20.7813 35.0545 20.784 35.0617 20.7866 35.0694C20.7902 35.0778 20.7932 35.0858 20.7968 35.0944C20.8006 35.1022 20.8045 35.1087 20.8078 35.1158C20.8093 35.1197 20.8104 35.1236 20.8128 35.1263C20.8155 35.1313 20.8191 35.1346 20.8218 35.1396C20.8253 35.1447 20.8283 35.1492 20.8319 35.1545C20.8334 35.1563 20.8354 35.1596 20.8369 35.1614C20.8384 35.1637 20.8396 35.1652 20.8411 35.1676C20.8494 35.1786 20.8595 35.189 20.8694 35.1992C20.8708 35.2006 20.872 35.203 20.8735 35.2045C20.8774 35.2084 20.8816 35.2119 20.8851 35.2146C20.8896 35.2185 20.8932 35.2221 20.8973 35.2253C20.9057 35.2322 20.9146 35.239 20.9235 35.245C20.9286 35.2485 20.9324 35.2512 20.9372 35.2539C20.9402 35.2557 20.9437 35.2584 20.9464 35.2601C20.9482 35.2613 20.95 35.2628 20.9521 35.264C20.964 35.2715 20.9771 35.2768 20.9902 35.2822C20.992 35.2834 20.9943 35.2845 20.9967 35.2857C21.0024 35.2881 21.0083 35.2896 21.0143 35.292C21.0161 35.2929 21.0184 35.2938 21.0211 35.295C21.9405 35.5952 22.7963 35.7455 23.5815 35.7455C24.5866 35.7455 25.4783 35.4994 26.249 35.0093C28.4348 33.6159 28.8014 30.7779 28.8156 30.6577C28.8168 30.6497 28.8156 30.6416 28.8165 30.6336C28.8177 30.6199 28.818 30.6059 28.8177 30.5922C28.8165 30.5803 28.8147 30.5687 28.8132 30.5574C28.8118 30.5446 28.8094 30.5318 28.8067 30.5196ZM25.8381 34.3723C24.8475 35.0016 23.5916 35.1456 22.0991 34.8067L25.4432 32.8265C25.6229 32.7203 25.6827 32.4873 25.5759 32.3076C25.4697 32.1273 25.2367 32.0678 25.057 32.174L21.7129 34.1542C22.1336 32.6822 22.8635 31.6506 23.8918 31.085C25.4494 30.2277 27.3064 30.6529 28.0096 30.8663C27.8584 31.5857 27.3386 33.4187 25.8381 34.3723Z" fill="black"/>
</svg>
