<svg width="28" height="28" viewBox="0 0 28 28" fill="none" xmlns="http://www.w3.org/2000/svg">
<path d="M23.3333 14V25.6667H4.66667V14" stroke="#B6B6B6" stroke-width="2" stroke-linecap="round" stroke-linejoin="round"/>
<path d="M25.6667 8.16663H2.33333V14H25.6667V8.16663Z" stroke="#B6B6B6" stroke-width="2" stroke-linecap="round" stroke-linejoin="round"/>
<path d="M14 25.6666V8.16663" stroke="#B6B6B6" stroke-width="2" stroke-linecap="round" stroke-linejoin="round"/>
<path d="M14 8.16671H8.74999C7.97645 8.16671 7.23458 7.85942 6.6876 7.31244C6.14062 6.76545 5.83333 6.02359 5.83333 5.25004C5.83333 4.47649 6.14062 3.73463 6.6876 3.18765C7.23458 2.64066 7.97645 2.33337 8.74999 2.33337C12.8333 2.33337 14 8.16671 14 8.16671Z" stroke="#B6B6B6" stroke-width="2" stroke-linecap="round" stroke-linejoin="round"/>
<path d="M14 8.16671H19.25C20.0235 8.16671 20.7654 7.85942 21.3124 7.31244C21.8594 6.76545 22.1667 6.02359 22.1667 5.25004C22.1667 4.47649 21.8594 3.73463 21.3124 3.18765C20.7654 2.64066 20.0235 2.33337 19.25 2.33337C15.1667 2.33337 14 8.16671 14 8.16671Z" stroke="#B6B6B6" stroke-width="2" stroke-linecap="round" stroke-linejoin="round"/>
</svg>
