<svg width="26" height="24" viewBox="0 0 26 24" fill="none" xmlns="http://www.w3.org/2000/svg">
<path d="M13.4519 22.0661L13.4519 22.0661L13.4422 22.0695C13.37 22.095 13.2098 22.125 13 22.125C12.7902 22.125 12.63 22.095 12.5578 22.0695L12.5578 22.0695L12.5481 22.0661C10.8791 21.4964 8.08369 19.9793 5.71877 17.5562C3.36591 15.1455 1.5 11.9049 1.5 7.8625C1.5 4.54761 4.16945 1.875 7.45 1.875C9.39363 1.875 11.1142 2.813 12.1972 4.27122C12.3858 4.52524 12.6836 4.675 13 4.675C13.3164 4.675 13.6142 4.52524 13.8028 4.27122C14.8852 2.81382 16.6179 1.875 18.55 1.875C21.8305 1.875 24.5 4.54761 24.5 7.8625C24.5 11.9049 22.6341 15.1455 20.2812 17.5562C17.9163 19.9793 15.1209 21.4964 13.4519 22.0661Z" stroke="#F8F7F3" stroke-width="2" stroke-linecap="round" stroke-linejoin="round"/>
</svg>
