<svg width="30" height="30" viewBox="0 0 30 30" fill="none" xmlns="http://www.w3.org/2000/svg">
<path d="M3.75 3.75V10H10" stroke="black" stroke-width="2" stroke-linecap="round" stroke-linejoin="round"/>
<path d="M3.8125 16.25C4.08938 18.7573 5.20088 21.0987 6.96848 22.8984C8.73608 24.698 11.0572 25.8514 13.5591 26.1732C16.061 26.4951 18.5985 25.9667 20.764 24.6731C22.9295 23.3794 24.5975 21.3955 25.4999 19.04C26.4024 16.6844 26.487 14.0939 25.7402 11.6845C24.9934 9.27503 23.4584 7.18651 21.3819 5.7543C19.3054 4.32209 16.8079 3.62931 14.2903 3.78722C11.7727 3.94512 9.38127 4.94456 7.5 6.625L3.75 10" stroke="black" stroke-width="2" stroke-linecap="round" stroke-linejoin="round"/>
<path d="M15 8.75V15L20 17.5" stroke="black" stroke-width="2" stroke-linecap="round" stroke-linejoin="round"/>
</svg>
