<svg width="25" height="19" viewBox="0 0 25 19" fill="none" xmlns="http://www.w3.org/2000/svg">
<path d="M22.1418 0.52343H2.45215C1.29587 0.52343 0.352539 1.43067 0.352539 2.54491V16.0215C0.352539 17.1319 1.29167 18.043 2.45215 18.043H22.1418C23.2952 18.043 24.2414 17.1388 24.2414 16.0215V2.54491C24.2414 1.43445 23.3023 0.52343 22.1418 0.52343ZM21.8519 1.87109L12.3415 11.0276L2.74885 1.87109H21.8519ZM1.75228 15.7424V2.81755L8.49338 9.25215L1.75228 15.7424ZM2.74203 16.6953L9.48738 10.2009L11.8509 12.457C12.1245 12.7182 12.5661 12.7173 12.8385 12.4549L15.1431 10.2361L21.8519 16.6953H2.74203ZM22.8417 15.7424L16.1329 9.2832L22.8417 2.82397V15.7424Z" fill="#868889"/>
</svg>
