<svg width="24" height="33" viewBox="0 0 24 33" fill="none" xmlns="http://www.w3.org/2000/svg">
<path d="M16.9276 32.342C17.0893 32.134 17.3138 31.9501 17.4019 31.7142C17.8731 30.4548 18.3157 29.1839 18.7546 27.9124C18.8281 27.7 18.9106 27.6435 19.137 27.693C20.4313 27.9727 21.7313 28.2289 23.0263 28.5073C23.3433 28.5751 23.6141 28.5574 23.8164 28.2821C24.0238 28.0006 23.9312 27.7342 23.7746 27.4603C22.5824 25.3675 21.399 23.2698 20.2024 21.1802C20.0812 20.969 20.0914 20.8536 20.2721 20.6805C26.1076 15.0688 24.9243 5.54313 17.8997 1.5435C17.0278 1.04695 16.1044 0.672801 15.1335 0.415333C14.6617 0.28977 14.3098 0.441968 14.2153 0.816755C14.1183 1.20169 14.3301 1.49594 14.8012 1.63418C18.4946 2.71479 21.0147 5.06561 22.2152 8.71456C24.2458 14.8855 20.3007 21.4066 13.9001 22.5639C8.16097 23.602 2.65331 19.8681 1.47124 14.1372C0.333559 8.62514 3.73201 3.10416 9.16611 1.64053C9.41914 1.57204 9.68739 1.4915 9.7451 1.21945C9.78632 1.02539 9.75207 0.777437 9.65949 0.601775C9.52885 0.352551 9.25172 0.309429 8.99108 0.383625C8.55669 0.506652 8.11658 0.623337 7.70121 0.795828C3.40606 2.57908 0.804106 5.75621 0.136972 10.3615C-0.442648 14.363 0.832008 17.8109 3.70474 20.6577C3.89499 20.846 3.91909 20.9728 3.78401 21.2075C2.59053 23.2869 1.40592 25.372 0.236534 27.4653C0.129995 27.6556 0.0811653 27.9302 0.124289 28.1407C0.192778 28.4724 0.524443 28.5992 0.911913 28.5187C2.22969 28.246 3.54811 27.9777 4.86335 27.693C5.08911 27.6442 5.17282 27.6993 5.24638 27.9124C5.68205 29.1738 6.13674 30.4288 6.57558 31.6895C6.6726 31.9672 6.8026 32.2044 7.07339 32.342C7.19959 32.342 7.32579 32.342 7.45262 32.342C7.6156 32.1575 7.81599 31.9939 7.93648 31.7846C9.23397 29.5245 10.5181 27.2567 11.8067 24.9915C11.8619 24.8945 11.9228 24.8012 12.0008 24.6738C12.0788 24.8006 12.1397 24.8945 12.1948 24.9915C13.4835 27.2567 14.7683 29.5245 16.0658 31.7846C16.1862 31.9939 16.3866 32.1575 16.5496 32.342C16.6745 32.342 16.8014 32.342 16.9276 32.342ZM16.6067 30.1929C15.4062 28.0817 14.2413 26.034 13.0605 23.9572C15.2832 23.7359 17.2637 22.9901 19.059 21.7104C20.0609 23.4771 21.0458 25.2141 22.056 26.9948C21.9082 26.9758 21.8245 26.9707 21.7434 26.9542C20.7249 26.743 19.7065 26.53 18.688 26.3181C18.2232 26.2218 17.9765 26.3575 17.8135 26.8096C17.6175 27.3531 17.4286 27.8991 17.2345 28.4432C17.0347 29.0038 16.8324 29.5638 16.6067 30.1929ZM1.93354 27.0113C2.95517 25.2109 3.94382 23.4682 4.88872 21.8036C5.8742 22.2919 6.80197 22.8442 7.79696 23.2178C8.78752 23.5894 9.84593 23.7809 10.8847 24.0542C9.75397 26.0423 8.5903 28.0868 7.39618 30.1859C7.33086 30.014 7.29281 29.9183 7.25857 29.8212C6.89963 28.8117 6.54387 27.8014 6.1824 26.7931C6.02703 26.3606 5.77146 26.223 5.32565 26.315C4.89316 26.4038 4.46129 26.4944 4.0288 26.5826C3.35215 26.7215 2.67487 26.8591 1.93354 27.0113Z" fill="black"/>
<path d="M21.4753 12.0089C21.4804 6.78532 17.2252 2.52568 12.001 2.52441C6.77682 2.52378 2.52036 6.78215 2.5248 12.0063C2.52923 17.2179 6.77112 21.4648 11.9833 21.4756C17.2049 21.4857 21.4703 17.2318 21.4753 12.0089ZM20.2127 11.9848C20.2203 16.5127 16.534 20.2085 12.0074 20.2124C7.49216 20.2162 3.80452 16.545 3.78804 12.0298C3.77155 7.50129 7.4503 3.79907 11.9782 3.78702C16.5067 3.77624 20.2051 7.45753 20.2127 11.9848Z" fill="black"/>
<path d="M12.0016 1.08621e-06C11.6654 -0.000633072 11.3807 0.276494 11.3712 0.611964C11.3617 0.959482 11.6515 1.25754 11.999 1.25817C12.3472 1.2588 12.637 0.962019 12.6287 0.613866C12.6211 0.277762 12.3377 0.000635244 12.0016 1.08621e-06Z" fill="black"/>
<path d="M15.973 16.7347C15.8424 15.9401 15.765 15.1163 15.5596 14.3262C15.3655 13.5817 15.493 13.0528 16.1132 12.56C16.7112 12.0851 17.2147 11.4915 17.7664 10.9563C17.9801 10.7489 18.0994 10.5193 17.9998 10.2232C17.9002 9.92702 17.6669 9.82175 17.3713 9.77989C16.3719 9.63848 15.375 9.47994 14.3762 9.33535C14.1834 9.30745 14.0636 9.23135 13.9742 9.04617C13.5341 8.13806 13.0749 7.23946 12.6285 6.33451C12.4991 6.07197 12.3311 5.87475 12.014 5.86904C11.6817 5.8627 11.5054 6.06436 11.3703 6.33832C10.9283 7.23375 10.4723 8.1222 10.0386 9.02144C9.93901 9.22754 9.8071 9.31125 9.58959 9.34169C8.59015 9.48184 7.59262 9.63784 6.59382 9.78306C6.31099 9.82429 6.09221 9.94414 6.00025 10.2276C5.90893 10.5098 6.0104 10.7368 6.21587 10.9379C6.95276 11.6595 7.68204 12.3888 8.4221 13.108C8.55781 13.2399 8.59459 13.361 8.56098 13.5506C8.37835 14.5754 8.2141 15.6027 8.04161 16.6294C7.99785 16.8913 8.06824 17.1139 8.27752 17.2756C8.51152 17.4564 8.76138 17.4405 9.01694 17.3067C9.92062 16.8343 10.83 16.3726 11.7286 15.8913C11.9303 15.7835 12.0812 15.7923 12.2791 15.8976C13.1789 16.377 14.0845 16.845 14.9939 17.3067C15.4866 17.5585 15.9857 17.2668 15.973 16.7347ZM9.49193 15.6325C9.60988 14.9216 9.68661 14.264 9.83437 13.6229C9.95867 13.082 9.84896 12.685 9.42344 12.3089C8.92245 11.8663 8.48489 11.352 8.00292 10.8523C8.67323 10.7508 9.34417 10.6233 10.0208 10.5555C10.5243 10.5054 10.8465 10.3018 11.052 9.82555C11.3246 9.19393 11.6601 8.58895 11.9994 7.91103C12.338 8.58768 12.6735 9.19203 12.9462 9.82365C13.1517 10.2986 13.4719 10.5047 13.9761 10.5555C14.6533 10.6227 15.3243 10.7514 16.0466 10.8611C15.9337 10.9797 15.8582 11.0634 15.7777 11.1427C15.3129 11.6012 14.8499 12.061 14.38 12.5144C14.1498 12.7363 14.0598 12.9799 14.1213 13.3083C14.2621 14.0605 14.3724 14.8183 14.5056 15.6344C13.8194 15.2799 13.1764 14.9736 12.56 14.6198C12.1687 14.3947 11.8326 14.3921 11.4413 14.6153C10.8237 14.9667 10.1813 15.2755 9.49193 15.6325Z" fill="black"/>
</svg>
