<svg width="19" height="19" viewBox="0 0 19 19" fill="none" xmlns="http://www.w3.org/2000/svg">
<path d="M9.22004 19.0033C9.15981 19.0033 9.09883 18.9883 9.04394 18.9582L0.283193 14.2074C0.157408 14.1393 0.078125 14.0039 0.078125 13.8566V4.94893C0.078125 4.81194 0.146735 4.68446 0.258798 4.61241C0.370861 4.54036 0.511893 4.53402 0.629293 4.59499L9.39004 9.14782C9.51888 9.21513 9.60044 9.35211 9.60044 9.50176V18.6074C9.60044 18.746 9.53107 18.8743 9.41672 18.9463C9.35726 18.9843 9.28865 19.0033 9.22004 19.0033ZM0.840459 13.6167L8.83887 17.9542V9.74642L0.840459 5.58949V13.6167Z" fill="#28B446"/>
<path d="M9.23224 19.0034C9.16363 19.0034 9.09502 18.9844 9.0348 18.9464C8.92121 18.8743 8.85107 18.746 8.85107 18.6075V9.50181C8.85107 9.35216 8.93264 9.21518 9.06148 9.14788L17.8222 4.59505C17.9389 4.53329 18.0807 4.53962 18.1927 4.61247C18.3055 4.68452 18.3742 4.812 18.3742 4.94898V13.8567C18.3742 14.004 18.2949 14.1394 18.1691 14.2075L9.40834 18.9582C9.35345 18.9883 9.29247 19.0034 9.23224 19.0034ZM9.61341 9.74648V17.9542L17.6118 13.6168V5.58954L9.61341 9.74648ZM17.993 13.8567H18.0006H17.993Z" fill="#28B446"/>
<path d="M0.459108 5.34493C0.318838 5.34493 0.184668 5.26495 0.117582 5.12639C0.0230527 4.93082 0.100048 4.69328 0.288345 4.59509L9.06129 0.0422636C9.16878 -0.0131622 9.29533 -0.0131622 9.40205 0.0422636L18.1628 4.59509C18.3511 4.69328 18.4273 4.93082 18.3336 5.12639C18.239 5.32196 18.0111 5.40035 17.822 5.30375L9.23205 0.838811L0.629871 5.30296C0.574983 5.33147 0.517045 5.34493 0.459108 5.34493Z" fill="#28B446"/>
<path d="M13.8003 11.8772C13.5899 11.8772 13.4191 11.6998 13.4191 11.4813V7.37104L4.86879 2.92747C4.6805 2.83008 4.60426 2.59175 4.69879 2.39618C4.79332 2.2006 5.02202 2.12222 5.21032 2.21881L13.9711 6.77165C14.0999 6.83974 14.1815 6.97672 14.1815 7.12637V11.4813C14.1815 11.6998 14.0107 11.8772 13.8003 11.8772Z" fill="#28B446"/>
</svg>
