<svg width="19" height="23" viewBox="0 0 19 23" fill="none" xmlns="http://www.w3.org/2000/svg">
<path d="M10.5959 4.00897C10.3434 4.00897 10.1385 3.79432 10.1385 3.52983V1.91993C10.1385 1.39192 9.72785 0.961649 9.22386 0.961649C8.71988 0.961649 8.3092 1.39192 8.3092 1.91993V3.52983C8.3092 3.79432 8.10431 4.00897 7.85186 4.00897C7.59942 4.00897 7.39453 3.79527 7.39453 3.52983V1.91993C7.39453 0.862947 8.21499 0.00337219 9.22386 0.00337219C10.2327 0.00337219 11.0532 0.862947 11.0532 1.91993V3.52983C11.0532 3.79527 10.8483 4.00897 10.5959 4.00897Z" fill="#28B446"/>
<path d="M9.22379 23.002C7.45849 23.002 6.02246 21.4975 6.02246 19.648C6.02246 19.3836 6.22735 19.1689 6.47979 19.1689C6.73224 19.1689 6.93713 19.3836 6.93713 19.648C6.93713 20.9685 7.96338 22.0437 9.22379 22.0437C10.4842 22.0437 11.5105 20.9685 11.5105 19.648C11.5105 19.3836 11.7153 19.1689 11.9678 19.1689C12.2202 19.1689 12.4251 19.3836 12.4251 19.648C12.4251 21.4975 10.9891 23.002 9.22379 23.002Z" fill="#28B446"/>
<path d="M16.9985 20.1273H1.44915C0.692719 20.1273 0.0771484 19.4823 0.0771484 18.6898C0.0771484 18.2692 0.25185 17.8715 0.557348 17.5974C1.99886 16.321 2.82115 14.4638 2.82115 12.4975V9.5862C2.82115 5.88726 5.6932 2.87827 9.22381 2.87827C12.7544 2.87827 15.6265 5.88726 15.6265 9.5862V12.4975C15.6265 14.4648 16.4488 16.321 17.883 17.5907C18.1958 17.8715 18.3705 18.2692 18.3705 18.6898C18.3705 19.4823 17.7558 20.1273 16.9985 20.1273ZM9.22381 3.83654C6.19718 3.83654 3.73581 6.41527 3.73581 9.5862V12.4975C3.73581 14.7475 2.79554 16.8701 1.15554 18.3228C1.05035 18.4167 0.991815 18.5499 0.991815 18.6898C0.991815 18.9543 1.1967 19.169 1.44915 19.169H16.9985C17.2509 19.169 17.4558 18.9543 17.4558 18.6898C17.4558 18.5499 17.3973 18.4167 17.2957 18.3257C15.653 16.8701 14.7118 14.7465 14.7118 12.4975V9.5862C14.7118 6.41527 12.2504 3.83654 9.22381 3.83654Z" fill="#28B446"/>
</svg>
