<svg width="26" height="24" viewBox="0 0 26 24" fill="none" xmlns="http://www.w3.org/2000/svg">
<path d="M21.591 3.51471C19.2369 1.24823 16.1069 0 12.7777 0C9.44841 0 6.31858 1.24823 3.96451 3.51471C1.61044 5.78119 0.313965 8.79456 0.313965 12C0.313965 15.2053 1.61044 18.2188 3.96451 20.4853C6.31858 22.7518 9.44841 24 12.7777 24C16.1069 24 19.2369 22.7518 21.591 20.4853C23.945 18.2188 25.2415 15.2053 25.2415 12C25.2415 8.79456 23.945 5.78119 21.591 3.51471ZM6.56239 20.7369C7.08368 17.8471 9.68461 15.7156 12.7777 15.7156C15.871 15.7156 18.4718 17.8471 18.9931 20.7369C17.2234 21.9075 15.0824 22.5938 12.7777 22.5938C10.4731 22.5938 8.33204 21.9075 6.56239 20.7369ZM8.81472 10.4938C8.81472 8.38971 10.5925 6.67822 12.7777 6.67822C14.9629 6.67822 16.7407 8.38989 16.7407 10.4938C16.7407 12.5977 14.9629 14.3093 12.7777 14.3093C10.5925 14.3093 8.81472 12.5977 8.81472 10.4938ZM20.2582 19.7615C19.8651 18.4162 19.0844 17.1956 17.9901 16.2422C17.3187 15.6572 16.5546 15.1956 15.733 14.8702C17.2179 13.9376 18.2015 12.3243 18.2015 10.4938C18.2015 7.61444 15.7683 5.27197 12.7777 5.27197C9.78712 5.27197 7.35412 7.61444 7.35412 10.4938C7.35412 12.3243 8.33774 13.9376 9.82249 14.8702C9.0011 15.1956 8.23676 15.657 7.56541 16.242C6.4713 17.1954 5.69041 18.416 5.2973 19.7613C3.13208 17.8253 1.77456 15.0626 1.77456 12C1.77456 6.15857 6.71055 1.40625 12.7777 1.40625C18.8449 1.40625 23.7809 6.15857 23.7809 12C23.7809 15.0628 22.4234 17.8255 20.2582 19.7615Z" fill="#969696"/>
</svg>
