<svg width="34" height="34" viewBox="0 0 34 34" fill="none" xmlns="http://www.w3.org/2000/svg">
<path fill-rule="evenodd" clip-rule="evenodd" d="M23.1009 16.3412L30.0406 12.106L33.1501 18.2284C33.9012 21.5735 29.7853 22.8011 26.4804 22.6014L23.1006 16.3412H23.1009Z" fill="#28B446"/>
<path fill-rule="evenodd" clip-rule="evenodd" d="M21.5235 20.7142L17.8733 27.2967L21.5235 33.9715L21.6137 31.3014H24.9484C26.1652 31.409 27.7424 30.5957 28.3283 29.4142L32.6094 21.4045C31.1975 22.8314 29.3817 23.1997 27.292 23.1997H21.6589L21.5238 20.714L21.5235 20.7142Z" fill="#28B446"/>
<path fill-rule="evenodd" clip-rule="evenodd" d="M13.3679 12.5983L6.37476 8.45606L10.1056 2.70741C12.6042 0.41303 15.6528 3.49313 17.0858 6.54126L13.3681 12.5985L13.3679 12.5983Z" fill="#28B446"/>
<path fill-rule="evenodd" clip-rule="evenodd" d="M17.8769 11.8844L25.2828 11.9492L29.224 5.44958L26.8951 6.6649L25.2764 3.68662C24.7776 2.54787 23.316 1.53407 22.0204 1.58425L13.0867 1.64868C14.9934 2.21699 16.1899 3.65989 17.2042 5.52632L19.9385 10.5571L17.8764 11.8844H17.8769Z" fill="#28B446"/>
<path fill-rule="evenodd" clip-rule="evenodd" d="M1.02341 12.2553L3.19022 13.948L1.15082 17.854C0.13111 19.6551 1.88292 21.4097 2.99904 22.0202C4.09778 22.6214 5.80319 22.6929 7.39645 22.6713L10.2644 17.9842L12.4312 19.1559L8.67112 12.1902L1.02358 12.2553H1.02341Z" fill="#28B446"/>
<path fill-rule="evenodd" clip-rule="evenodd" d="M1.3418 21.3043L5.99401 29.8976C6.92878 31.0911 8.6919 31.3733 10.519 31.3298H15.4263V23.1925L6.12157 23.1274C4.67703 23.2143 2.78634 22.9105 1.3418 21.3046V21.3043Z" fill="#28B446"/>
</svg>
