<svg width="21" height="21" viewBox="0 0 21 21" fill="none" xmlns="http://www.w3.org/2000/svg">
<path d="M19.559 11.2281H6.81261C6.44868 11.2281 6.15332 10.9213 6.15332 10.5433C6.15332 10.1654 6.44868 9.85858 6.81261 9.85858H19.559C19.9229 9.85858 20.2182 10.1654 20.2182 10.5433C20.2182 10.9213 19.9229 11.2281 19.559 11.2281Z" fill="#28B446"/>
<path d="M10.3288 14.8801C10.16 14.8801 9.99131 14.8136 9.86286 14.6793L6.34672 11.0273C6.08918 10.7596 6.08918 10.326 6.34672 10.0585L9.86286 6.40643C10.1204 6.13894 10.5379 6.13894 10.7956 6.40643C11.0532 6.67391 11.0532 7.10758 10.7956 7.37507L7.74529 10.5433L10.7956 13.7115C11.0532 13.979 11.0532 14.4127 10.7956 14.6802C10.6664 14.8136 10.4975 14.8801 10.3288 14.8801V14.8801Z" fill="#28B446"/>
<path d="M9.66962 20.5866C4.33817 20.5866 0 16.0808 0 10.5433C0 5.00583 4.33817 0.5 9.66962 0.5C13.6701 0.5 17.2022 2.99984 18.6693 6.86938C18.8029 7.22079 18.6358 7.61801 18.2975 7.7576C17.959 7.89469 17.5766 7.72383 17.4422 7.37058C16.1754 4.02883 13.1243 1.86954 9.66962 1.86954C5.06506 1.86954 1.31858 5.76098 1.31858 10.5433C1.31858 15.3257 5.06506 19.2171 9.66962 19.2171C13.1243 19.2171 16.1754 17.0578 17.4422 13.7171C17.5758 13.3636 17.9582 13.193 18.2975 13.3299C18.6358 13.4686 18.8029 13.8667 18.6693 14.2183C17.2022 18.0868 13.6701 20.5866 9.66962 20.5866V20.5866Z" fill="#28B446"/>
</svg>
