<svg width="33" height="33" viewBox="0 0 33 33" fill="none" xmlns="http://www.w3.org/2000/svg">
<path d="M4.125 9.625V12.375C5.21902 12.375 6.26823 12.8096 7.04182 13.5832C7.8154 14.3568 8.25 15.406 8.25 16.5C8.25 17.594 7.8154 18.6432 7.04182 19.4168C6.26823 20.1904 5.21902 20.625 4.125 20.625V23.375C4.125 24.8875 5.3625 26.125 6.875 26.125H26.125C26.8543 26.125 27.5538 25.8353 28.0695 25.3195C28.5853 24.8038 28.875 24.1043 28.875 23.375V20.625C27.781 20.625 26.7318 20.1904 25.9582 19.4168C25.1846 18.6432 24.75 17.594 24.75 16.5C24.75 15.406 25.1846 14.3568 25.9582 13.5832C26.7318 12.8096 27.781 12.375 28.875 12.375V9.625C28.875 8.89565 28.5853 8.19618 28.0695 7.68046C27.5538 7.16473 26.8543 6.875 26.125 6.875H6.875C6.14565 6.875 5.44618 7.16473 4.93046 7.68046C4.41473 8.19618 4.125 8.89565 4.125 9.625Z" stroke="#B6B6B6" stroke-width="2" stroke-linecap="round" stroke-linejoin="round"/>
<path d="M17.875 6.875V9.625" stroke="#B6B6B6" stroke-width="2" stroke-linecap="round" stroke-linejoin="round"/>
<path d="M17.875 23.375V26.125" stroke="#B6B6B6" stroke-width="2" stroke-linecap="round" stroke-linejoin="round"/>
<path d="M17.875 15.125V17.875" stroke="#B6B6B6" stroke-width="2" stroke-linecap="round" stroke-linejoin="round"/>
</svg>
