<svg width="30" height="30" viewBox="0 0 30 30" fill="none" xmlns="http://www.w3.org/2000/svg">
<path d="M15 3.75C13.5 3.75 12 4.5 11.25 5.875C10.5015 5.68337 9.71628 5.68768 8.96994 5.88753C8.22359 6.08738 7.54128 6.47603 6.9887 7.01605C6.43612 7.55607 6.03189 8.22927 5.81494 8.97083C5.59799 9.71238 5.57562 10.4973 5.75 11.25C4.5 12 3.625 13.5 3.625 15C3.625 16.5 4.5 18 5.75 18.75C5.375 20.25 5.75 21.875 7 23C8 24 9.625 24.5 11.125 24.25C11.875 25.5 13.375 26.25 14.875 26.25C16.375 26.25 17.875 25.5 18.625 24.125C20.125 24.5 21.75 24.125 22.875 22.875C23.875 21.875 24.375 20.375 24.125 18.75C25.375 18 26.125 16.5 26.125 15C26.125 13.5 25.375 12 24 11.25C24.375 9.75 24 8.125 22.75 7C22.2156 6.47241 21.5607 6.08288 20.842 5.8651C20.1233 5.64731 19.3624 5.6078 18.625 5.75C17.875 4.5 16.375 3.75 14.875 3.75H15Z" stroke="black" stroke-width="2" stroke-linecap="round" stroke-linejoin="round"/>
<path d="M11.25 15L13.75 17.5L18.75 12.5" stroke="black" stroke-width="2" stroke-linecap="round" stroke-linejoin="round"/>
</svg>
