<svg width="20" height="23" viewBox="0 0 20 23" fill="none" xmlns="http://www.w3.org/2000/svg">
<path d="M10 17.125C10.3542 17.125 10.6513 17.017 10.8913 16.801C11.1304 16.5858 11.25 16.3188 11.25 16V11.5C11.25 11.1813 11.1304 10.9139 10.8913 10.6979C10.6513 10.4826 10.3542 10.375 10 10.375C9.64583 10.375 9.34917 10.4826 9.11 10.6979C8.87 10.9139 8.75 11.1813 8.75 11.5V16C8.75 16.3188 8.87 16.5858 9.11 16.801C9.34917 17.017 9.64583 17.125 10 17.125ZM10 8.12501C10.3542 8.12501 10.6513 8.01701 10.8913 7.80101C11.1304 7.58576 11.25 7.31876 11.25 7.00001C11.25 6.68126 11.1304 6.41389 10.8913 6.19789C10.6513 5.98264 10.3542 5.87501 10 5.87501C9.64583 5.87501 9.34917 5.98264 9.11 6.19789C8.87 6.41389 8.75 6.68126 8.75 7.00001C8.75 7.31876 8.87 7.58576 9.11 7.80101C9.34917 8.01701 9.64583 8.12501 10 8.12501ZM10 22.6656H9.6875C9.58333 22.6656 9.48958 22.6469 9.40625 22.6094C6.67708 21.8406 4.42708 20.317 2.65625 18.0385C0.885417 15.7608 0 13.2438 0 10.4875V5.17189C0 4.70314 0.15125 4.28126 0.45375 3.90626C0.755417 3.53126 1.14583 3.25939 1.625 3.09064L9.125 0.559387C9.41667 0.465637 9.70833 0.418762 10 0.418762C10.2917 0.418762 10.5833 0.465637 10.875 0.559387L18.375 3.09064C18.8542 3.25939 19.245 3.53126 19.5475 3.90626C19.8492 4.28126 20 4.70314 20 5.17189V10.4875C20 13.2438 19.1146 15.7608 17.3438 18.0385C15.5729 20.317 13.3229 21.8406 10.5938 22.6094C10.4896 22.6469 10.2917 22.6656 10 22.6656ZM10 20.3875C12.1667 19.7688 13.9583 18.5313 15.375 16.675C16.7917 14.8188 17.5 12.7563 17.5 10.4875V5.17189L10 2.64064L2.5 5.17189V10.4875C2.5 12.7563 3.20833 14.8188 4.625 16.675C6.04167 18.5313 7.83333 19.7688 10 20.3875Z" fill="#28B446"/>
</svg>
